<?xml version="1.0" encoding="utf-8"?>
<!-- Generator: Adobe Illustrator 24.1.1, SVG Export Plug-In . SVG Version: 6.00 Build 0)  -->
<svg version="1.1" id="Layer_1" xmlns="http://www.w3.org/2000/svg" xmlns:xlink="http://www.w3.org/1999/xlink" x="0px" y="0px"
	 viewBox="0 0 504 288" style="enable-background:new 0 0 504 288;" xml:space="preserve">
<style type="text/css">
	.st0{fill:#FF7D7D;}
	.st1{fill:#666666;}
	.st2{clip-path:url(#SVGID_2_);}
	.st3{fill:#FFFFFF;}
	.st4{fill:#FEFEFE;}
	.st5{fill:#FDFDFD;}
	.st6{fill:#FCFCFC;}
	.st7{fill:#FBFBFB;}
	.st8{fill:#FAFAFA;}
	.st9{fill:#F9F9F9;}
	.st10{fill:#F8F8F8;}
	.st11{fill:#F7F7F7;}
	.st12{fill:#F6F6F6;}
	.st13{fill:#F5F5F5;}
	.st14{fill:#F4F4F4;}
	.st15{fill:#F3F3F3;}
	.st16{fill:#F2F2F2;}
	.st17{fill:#F1F1F1;}
	.st18{fill:#F0F0F0;}
	.st19{fill:#EFEFEF;}
	.st20{fill:#EEEEEE;}
	.st21{fill:#EDEDED;}
	.st22{fill:#ECECEC;}
	.st23{fill:#EBEBEB;}
	.st24{fill:#EAEAEA;}
	.st25{fill:#E9E9E9;}
	.st26{fill:#E8E8E8;}
	.st27{fill:#E7E7E7;}
	.st28{fill:#E6E6E6;}
	.st29{fill:#E5E5E5;}
	.st30{fill:#E4E4E4;}
	.st31{fill:#E3E3E3;}
	.st32{fill:#E2E2E2;}
	.st33{fill:#E1E1E1;}
	.st34{fill:#E0E0E0;}
	.st35{fill:#DFDFDF;}
	.st36{fill:#DEDEDE;}
	.st37{fill:#DDDDDD;}
	.st38{fill:#DCDCDC;}
	.st39{fill:#DBDBDB;}
	.st40{fill:#DADADA;}
	.st41{fill:#D9D9D9;}
	.st42{fill:#D8D8D8;}
	.st43{fill:#D7D7D7;}
	.st44{fill:#D6D6D6;}
	.st45{fill:#D5D5D5;}
	.st46{fill:#D4D4D4;}
	.st47{fill:#D3D3D3;}
	.st48{fill:#D2D2D2;}
	.st49{fill:#D1D1D1;}
	.st50{fill:#D0D0D0;}
	.st51{fill:#CFCFCF;}
	.st52{fill:#CECECE;}
	.st53{fill:#CDCDCD;}
	.st54{fill:#CCCCCC;}
	.st55{fill:#CBCBCB;}
	.st56{fill:#CACACA;}
	.st57{fill:#C9C9C9;}
	.st58{fill:#C8C8C8;}
	.st59{fill:#C7C7C7;}
	.st60{fill:#C6C6C6;}
	.st61{fill:#C5C5C5;}
	.st62{fill:#C4C4C4;}
	.st63{fill:#C3C3C3;}
	.st64{fill:#C2C2C2;}
	.st65{fill:#C1C1C1;}
	.st66{fill:#C0C0C0;}
	.st67{fill:#BFBFBF;}
	.st68{fill:#BEBEBE;}
	.st69{fill:#BDBDBD;}
	.st70{fill:#BCBCBC;}
	.st71{fill:#BBBBBB;}
	.st72{fill:#BABABA;}
	.st73{fill:#B9B9B9;}
	.st74{fill:#B8B8B8;}
	.st75{fill:#B7B7B7;}
	.st76{fill:#B6B6B6;}
	.st77{fill:#B5B5B5;}
	.st78{fill:#B4B4B4;}
	.st79{fill:#B3B3B3;}
	.st80{fill:#0275D8;}
	.st81{fill:none;}
	.st82{fill:#FFFAFA;stroke:#FFF8F8;stroke-miterlimit:10;}
	.st83{font-family:'MyriadPro-Regular';}
	.st84{font-size:12px;}
	.st85{fill:#F9F9F9;stroke:#FFF8F8;stroke-miterlimit:10;}
</style>
<g>
	<rect class="st0" width="504" height="288"/>
	<g>
		<g>
			<path class="st1" d="M318.03,172.65l30.96,17.88v35.75l-30.96,17.88l-30.96-17.88v-35.75L318.03,172.65z M347.94,191.14
				l-29.91-17.27l-29.91,17.27v34.53l29.91,17.27l29.91-17.27V191.14z"/>
		</g>
		<g>
			<path class="st1" d="M257.16,172.65l30.96,17.88v35.75l-30.96,17.88l-30.96-17.88v-35.75L257.16,172.65z M287.07,191.14
				l-29.91-17.27l-29.91,17.27v34.53l29.91,17.27l29.91-17.27V191.14z"/>
		</g>
		<g>
			<path class="st1" d="M196.29,172.65l30.96,17.88v35.75l-30.96,17.88l-30.96-17.88v-35.75L196.29,172.65z M226.2,191.14
				l-29.91-17.27l-29.91,17.27v34.53l29.91,17.27l29.91-17.27V191.14z"/>
		</g>
		<g>
			<path class="st1" d="M470.2,119.94l30.96,17.88v35.75l-30.96,17.88l-30.96-17.88v-35.75L470.2,119.94z M500.11,138.43
				l-29.91-17.27l-29.91,17.27v34.53l29.91,17.27l29.91-17.27V138.43z"/>
		</g>
		<g>
			<path class="st1" d="M409.33,119.94l30.96,17.88v35.75l-30.96,17.88l-30.96-17.88v-35.75L409.33,119.94z M439.24,138.43
				l-29.9-17.27l-29.91,17.27v34.53l29.91,17.27l29.9-17.27V138.43z"/>
		</g>
		<g>
			<path class="st1" d="M348.47,119.94l30.96,17.88v35.75l-30.96,17.88l-30.96-17.88v-35.75L348.47,119.94z M378.37,138.43
				l-29.91-17.27l-29.91,17.27v34.53l29.91,17.27l29.91-17.27V138.43z"/>
		</g>
		<g>
			<path class="st1" d="M287.6,119.94l30.96,17.88v35.75l-30.96,17.88l-30.96-17.88v-35.75L287.6,119.94z M317.5,138.43
				l-29.91-17.27l-29.91,17.27v34.53l29.91,17.27l29.91-17.27V138.43z"/>
		</g>
		<g>
			<path class="st1" d="M226.73,119.94l30.96,17.88v35.75l-30.96,17.88l-30.96-17.88v-35.75L226.73,119.94z M256.63,138.43
				l-29.91-17.27l-29.91,17.27v34.53l29.91,17.27l29.91-17.27V138.43z"/>
		</g>
		<g>
			<path class="st1" d="M439.77,67.23l30.96,17.88v35.75l-30.96,17.88l-30.96-17.88V85.1L439.77,67.23z M469.67,85.71l-29.91-17.27
				l-29.9,17.27v34.53l29.9,17.27l29.91-17.27V85.71z"/>
		</g>
		<g>
			<path class="st1" d="M378.9,67.23l30.96,17.88v35.75l-30.96,17.88l-30.96-17.88V85.1L378.9,67.23z M408.81,85.71L378.9,68.45
				l-29.91,17.27v34.53l29.91,17.27l29.91-17.27V85.71z"/>
		</g>
		<g>
			<path class="st1" d="M257.16,67.23l30.96,17.88v35.75l-30.96,17.88l-30.96-17.88V85.1L257.16,67.23z M287.07,85.71l-29.91-17.27
				l-29.91,17.27v34.53l29.91,17.27l29.91-17.27V85.71z"/>
		</g>
		<g>
			<path class="st1" d="M409.33,14.51l30.96,17.88v35.75l-30.96,17.88l-30.96-17.88V32.39L409.33,14.51z M439.24,33l-29.9-17.27
				L379.43,33v34.53l29.91,17.27l29.9-17.27V33z"/>
		</g>
	</g>
	<g>
		<defs>
			<rect id="SVGID_1_" width="504" height="288"/>
		</defs>
		<clipPath id="SVGID_2_">
			<use xlink:href="#SVGID_1_"  style="overflow:visible;"/>
		</clipPath>
		<g class="st2">
			<g>
				<path class="st3" d="M467.35,256.85l-41.53,23.98l-41.53-23.98V208.9l17.99-10.39l23.54-13.59l41.53,23.98V256.85z
					 M362.79,195.64l-20.77-11.99V135.7l20.77-11.99l20.77-11.99l41.53,23.98v47.96l-20.77,11.99l-20.77,11.99L362.79,195.64z
					 M468.82,256.14v-48.09l-42.26-24.4v-48.8l-42.26-24.4v-48.8l-43-24.82l-43,24.82v48.8l-42.26,24.4v48.8l-42.26,24.4v48.3
					H-72.85v1.42h286.74l42.87,24.75l42.26-24.4l42.26,24.4l42.26-24.4l42.26,24.4l43-24.82v-0.14h62.87v-1.42H468.82z
					 M299.76,62.49l41.53-23.98l41.53,23.98v47.96l-12.74,7.36l-28.79,16.62l-31.11-17.96l-10.42-6.01V62.49z M298.29,256.85
					l-41.53,23.98l-41.53-23.98V208.9l41.53-23.98l23.54,13.59l17.99,10.39V256.85z M278.26,195.64l-20.77-11.99V135.7l41.53-23.98
					l23.64,13.65l17.89,10.33v47.96l-17.89,10.33l-23.64,13.65L278.26,195.64z M382.82,256.85l-41.53,23.98l-41.53-23.98V208.9
					l10.42-6.01l31.11-17.96l28.79,16.62l12.74,7.36V256.85z"/>
				<path class="st4" d="M467.57,256.64l-41.53,23.98l-41.53-23.98v-47.96l17.99-10.39l23.54-13.59l41.53,23.98V256.64z
					 M363.01,195.42l-20.77-11.99v-47.96l20.77-11.99l20.77-11.99l41.53,23.98v47.96l-20.77,11.99l-20.77,11.99L363.01,195.42z
					 M469.04,255.92v-48.09l-42.26-24.4v-48.8l-42.26-24.4v-48.8l-43-24.82l-43,24.82v48.8l-42.26,24.4v48.8l-42.26,24.4v48.3
					H-72.63v1.42h286.74l42.87,24.75l42.26-24.4l42.26,24.4l42.26-24.4l42.26,24.4l43-24.82v-0.14h62.87v-1.42H469.04z
					 M299.98,62.27l41.53-23.98l41.53,23.98v47.96l-12.74,7.36l-28.79,16.62l-31.11-17.96l-10.42-6.01V62.27z M298.51,256.64
					l-41.53,23.98l-41.53-23.98v-47.96l41.53-23.98l23.54,13.59l17.99,10.39V256.64z M278.48,195.42l-20.77-11.99v-47.96
					l41.53-23.98l23.64,13.65l17.89,10.33v47.96l-17.89,10.33l-23.64,13.65L278.48,195.42z M383.04,256.64l-41.53,23.98
					l-41.53-23.98v-47.96l10.42-6.01l31.11-17.96l28.79,16.62l12.74,7.36V256.64z"/>
				<path class="st5" d="M467.79,256.42l-41.53,23.98l-41.53-23.98v-47.96l17.99-10.39l23.54-13.59l41.53,23.98V256.42z
					 M363.23,195.2l-20.77-11.99v-47.96l20.77-11.99l20.77-11.99l41.53,23.98v47.96l-20.77,11.99l-20.77,11.99L363.23,195.2z
					 M469.25,255.71v-48.09l-42.26-24.4v-48.8l-42.26-24.4v-48.8l-43-24.82l-43,24.82v48.8l-42.26,24.4v48.8l-42.26,24.4v48.3
					H-72.41v1.42h286.74l42.87,24.75l42.26-24.4l42.26,24.4l42.26-24.4l42.26,24.4l43-24.82v-0.14h62.87v-1.42H469.25z M300.2,62.06
					l41.53-23.98l41.53,23.98v47.96l-12.74,7.36l-28.79,16.62l-31.11-17.96l-10.42-6.01V62.06z M298.73,256.42L257.2,280.4
					l-41.53-23.98v-47.96l41.53-23.98l23.54,13.59l17.99,10.39V256.42z M278.7,195.2l-20.77-11.99v-47.96l41.53-23.98l23.64,13.65
					l17.89,10.33v47.96l-17.89,10.33l-23.64,13.65L278.7,195.2z M383.26,256.42l-41.53,23.98l-41.53-23.98v-47.96l10.42-6.01
					l31.11-17.96l28.79,16.62l12.74,7.36V256.42z"/>
				<path class="st6" d="M468.01,256.2l-41.53,23.98l-41.53-23.98v-47.96l17.99-10.39l23.54-13.59l41.53,23.98V256.2z
					 M363.45,194.98L342.68,183v-47.96l20.77-11.99l20.77-11.99l41.53,23.98V183l-20.77,11.99l-20.77,11.99L363.45,194.98z
					 M469.47,255.49V207.4L427.21,183v-48.8l-42.26-24.4v-48.8l-43-24.82l-43,24.82v48.8l-42.26,24.4V183l-42.26,24.4v48.3H-72.2
					v1.42h286.74l42.87,24.75l42.26-24.4l42.26,24.4l42.26-24.4l42.26,24.4l43-24.82v-0.14h62.87v-1.42H469.47z M300.42,61.84
					l41.53-23.98l41.53,23.98v47.96l-12.74,7.36l-28.79,16.62l-31.11-17.96l-10.42-6.01V61.84z M298.95,256.2l-41.53,23.98
					l-41.53-23.98v-47.96l41.53-23.98l23.54,13.59l17.99,10.39V256.2z M278.92,194.98L258.15,183v-47.96l41.53-23.98l23.64,13.65
					l17.89,10.33V183l-17.89,10.33l-23.64,13.65L278.92,194.98z M383.48,256.2l-41.53,23.98l-41.53-23.98v-47.96l10.42-6.01
					l31.11-17.96l28.79,16.62l12.74,7.36V256.2z"/>
				<path class="st7" d="M468.22,255.98l-41.53,23.98l-41.53-23.98v-47.96l17.99-10.39l23.54-13.59l41.53,23.98V255.98z
					 M363.66,194.77l-20.77-11.99v-47.96l20.77-11.99l20.77-11.99l41.53,23.98v47.96l-20.77,11.99l-20.77,11.99L363.66,194.77z
					 M469.69,255.27v-48.09l-42.26-24.4v-48.8l-42.26-24.4v-48.8l-43-24.82l-43,24.82v48.8l-42.26,24.4v48.8l-42.26,24.4v48.3
					H-71.98v1.42h286.74l42.87,24.75l42.26-24.4l42.26,24.4l42.26-24.4l42.26,24.4l43-24.82v-0.14h62.87v-1.42H469.69z
					 M300.63,61.62l41.53-23.98l41.53,23.98v47.96l-12.74,7.36l-28.79,16.62l-31.11-17.96l-10.42-6.01V61.62z M299.17,255.98
					l-41.53,23.98l-41.53-23.98v-47.96l41.53-23.98l23.54,13.59l17.99,10.39V255.98z M279.14,194.77l-20.77-11.99v-47.96
					l41.53-23.98l23.64,13.65l17.89,10.33v47.96l-17.89,10.33l-23.64,13.65L279.14,194.77z M383.7,255.98l-41.53,23.98l-41.53-23.98
					v-47.96l10.42-6.01l31.11-17.96l28.79,16.62l12.74,7.36V255.98z"/>
				<path class="st8" d="M468.44,255.76l-41.53,23.98l-41.53-23.98v-47.96l17.99-10.39l23.54-13.59l41.53,23.98V255.76z
					 M363.88,194.55l-20.77-11.99V134.6l20.77-11.99l20.77-11.99l41.53,23.98v47.96l-20.77,11.99l-20.77,11.99L363.88,194.55z
					 M469.91,255.05v-48.09l-42.26-24.4v-48.8l-42.26-24.4v-48.8l-43-24.82l-43,24.82v48.8l-42.26,24.4v48.8l-42.26,24.4v48.3
					H-71.76v1.42h286.74l42.87,24.75l42.26-24.4l42.26,24.4l42.26-24.4l42.26,24.4l43-24.82v-0.14h62.87v-1.42H469.91z M300.85,61.4
					l41.53-23.98l41.53,23.98v47.96l-12.74,7.36l-28.79,16.62l-31.11-17.96l-10.42-6.01V61.4z M299.38,255.76l-41.53,23.98
					l-41.53-23.98v-47.96l41.53-23.98l23.54,13.59l17.99,10.39V255.76z M279.35,194.55l-20.77-11.99V134.6l41.53-23.98l23.64,13.65
					l17.89,10.33v47.96l-17.89,10.33l-23.64,13.65L279.35,194.55z M383.91,255.76l-41.53,23.98l-41.53-23.98v-47.96l10.42-6.01
					l31.11-17.96l28.79,16.62l12.74,7.36V255.76z"/>
				<path class="st9" d="M468.66,255.54l-41.53,23.98l-41.53-23.98v-47.96l17.99-10.39l23.54-13.59l41.53,23.98V255.54z
					 M364.1,194.33l-20.77-11.99v-47.96l20.77-11.99l20.77-11.99l41.53,23.98v47.96l-20.77,11.99l-20.77,11.99L364.1,194.33z
					 M470.13,254.83v-48.09l-42.26-24.4v-48.8l-42.26-24.4v-48.8l-43-24.82l-43,24.82v48.8l-42.26,24.4v48.8l-42.26,24.4v48.3
					H-71.54v1.42H215.2l42.87,24.75l42.26-24.4l42.26,24.4l42.26-24.4l42.26,24.4l43-24.82v-0.14H533v-1.42H470.13z M301.07,61.18
					L342.6,37.2l41.53,23.98v47.96l-12.74,7.36l-28.79,16.62l-31.11-17.96l-10.42-6.01V61.18z M299.6,255.54l-41.53,23.98
					l-41.53-23.98v-47.96l41.53-23.98l23.54,13.59l17.99,10.39V255.54z M279.57,194.33l-20.77-11.99v-47.96l41.53-23.98l23.64,13.65
					l17.89,10.33v47.96l-17.89,10.33l-23.64,13.65L279.57,194.33z M384.13,255.54l-41.53,23.98l-41.53-23.98v-47.96l10.42-6.01
					l31.11-17.96l28.79,16.62l12.74,7.36V255.54z"/>
				<path class="st10" d="M468.88,255.33l-41.53,23.98l-41.53-23.98v-47.96l17.99-10.39l23.54-13.59l41.53,23.98V255.33z
					 M364.32,194.11l-20.77-11.99v-47.96l20.77-11.99l20.77-11.99l41.53,23.98v47.96l-20.77,11.99l-20.77,11.99L364.32,194.11z
					 M470.35,254.61v-48.09l-42.26-24.4v-48.8l-42.26-24.4v-48.8l-43-24.82l-43,24.82v48.8l-42.26,24.4v48.8l-42.26,24.4v48.3
					H-71.32v1.42h286.74L258.29,281l42.26-24.4l42.26,24.4l42.26-24.4l42.26,24.4l43-24.82v-0.14h62.87v-1.42H470.35z M301.29,60.96
					l41.53-23.98l41.53,23.98v47.96l-12.74,7.36l-28.79,16.62l-31.11-17.96l-10.42-6.01V60.96z M299.82,255.33l-41.53,23.98
					l-41.53-23.98v-47.96l41.53-23.98l23.54,13.59l17.99,10.39V255.33z M279.79,194.11l-20.77-11.99v-47.96l41.53-23.98l23.64,13.65
					l17.89,10.33v47.96l-17.89,10.33l-23.64,13.65L279.79,194.11z M384.35,255.33l-41.53,23.98l-41.53-23.98v-47.96l10.42-6.01
					l31.11-17.96l28.79,16.62l12.74,7.36V255.33z"/>
				<path class="st11" d="M469.1,255.11l-41.53,23.98l-41.53-23.98v-47.96l17.99-10.39l23.54-13.59l41.53,23.98V255.11z
					 M364.54,193.89l-20.77-11.99v-47.96l20.77-11.99l20.77-11.99l41.53,23.98v47.96l-20.77,11.99l-20.77,11.99L364.54,193.89z
					 M470.57,254.4v-48.09l-42.26-24.4v-48.8l-42.26-24.4V59.9l-43-24.82l-43,24.82v48.8l-42.26,24.4v48.8l-42.26,24.4v48.3H-71.1
					v1.42h286.74l42.87,24.75l42.26-24.4l42.26,24.4l42.26-24.4l42.26,24.4l43-24.82v-0.14h62.87v-1.42H470.57z M301.51,60.75
					l41.53-23.98l41.53,23.98v47.96l-12.74,7.36l-28.79,16.62l-31.11-17.96l-10.42-6.01V60.75z M300.04,255.11l-41.53,23.98
					l-41.53-23.98v-47.96l41.53-23.98l23.54,13.59l17.99,10.39V255.11z M280.01,193.89l-20.77-11.99v-47.96l41.53-23.98l23.64,13.65
					l17.89,10.33v47.96l-17.89,10.33l-23.64,13.65L280.01,193.89z M384.57,255.11l-41.53,23.98l-41.53-23.98v-47.96l10.42-6.01
					l31.11-17.96l28.79,16.62l12.74,7.36V255.11z"/>
				<path class="st12" d="M469.32,254.89l-41.53,23.98l-41.53-23.98v-47.96l17.99-10.39l23.54-13.59l41.53,23.98V254.89z
					 M364.76,193.67l-20.77-11.99v-47.96l20.77-11.99l20.77-11.99l41.53,23.98v47.96l-20.77,11.99l-20.77,11.99L364.76,193.67z
					 M470.78,254.18v-48.09l-42.26-24.4v-48.8l-42.26-24.4v-48.8l-43-24.82l-43,24.82v48.8l-42.26,24.4v48.8l-42.26,24.4v48.3
					H-70.89v1.42h286.74l42.87,24.75l42.26-24.4l42.26,24.4l42.26-24.4l42.26,24.4l43-24.82v-0.14h62.87v-1.42H470.78z
					 M301.73,60.53l41.53-23.98l41.53,23.98v47.96l-12.74,7.36l-28.79,16.62l-31.11-17.96l-10.42-6.01V60.53z M300.26,254.89
					l-41.53,23.98l-41.53-23.98v-47.96l41.53-23.98l23.54,13.59l17.99,10.39V254.89z M280.23,193.67l-20.77-11.99v-47.96
					l41.53-23.98l23.64,13.65l17.89,10.33v47.96l-17.89,10.33l-23.64,13.65L280.23,193.67z M384.79,254.89l-41.53,23.98
					l-41.53-23.98v-47.96l10.42-6.01l31.11-17.96l28.79,16.62l12.74,7.36V254.89z"/>
				<path class="st13" d="M469.53,254.67L428,278.65l-41.53-23.98v-47.96l17.99-10.39L428,182.74l41.53,23.98V254.67z
					 M364.97,193.46l-20.77-11.99v-47.96l20.77-11.99l20.77-11.99l41.53,23.98v47.96l-20.77,11.99l-20.77,11.99L364.97,193.46z
					 M471,253.96v-48.09l-42.26-24.4v-48.8l-42.26-24.4v-48.8l-43-24.82l-43,24.82v48.8l-42.26,24.4v48.8l-42.26,24.4v48.3H-70.67
					v1.42h286.74l42.87,24.75l42.26-24.4l42.26,24.4l42.26-24.4l42.26,24.4l43-24.82v-0.14h62.87v-1.42H471z M301.94,60.31
					l41.53-23.98l41.53,23.98v47.96l-12.74,7.36l-28.79,16.62l-31.11-17.96l-10.42-6.01V60.31z M300.48,254.67l-41.53,23.98
					l-41.53-23.98v-47.96l41.53-23.98l23.54,13.59l17.99,10.39V254.67z M280.45,193.46l-20.77-11.99v-47.96l41.53-23.98l23.64,13.65
					l17.89,10.33v47.96l-17.89,10.33l-23.64,13.65L280.45,193.46z M385.01,254.67l-41.53,23.98l-41.53-23.98v-47.96l10.42-6.01
					l31.11-17.96l28.79,16.62l12.74,7.36V254.67z"/>
				<path class="st14" d="M469.75,254.45l-41.53,23.98l-41.53-23.98V206.5l17.99-10.39l23.54-13.59l41.53,23.98V254.45z
					 M365.19,193.24l-20.77-11.99v-47.96l20.77-11.99l20.77-11.99l41.53,23.98v47.96l-20.77,11.99l-20.77,11.99L365.19,193.24z
					 M471.22,253.74v-48.09l-42.26-24.4v-48.8l-42.26-24.4v-48.8l-43-24.82l-43,24.82v48.8l-42.26,24.4v48.8l-42.26,24.4v48.3
					H-70.45v1.42h286.74l42.87,24.75l42.26-24.4l42.26,24.4l42.26-24.4l42.26,24.4l43-24.82v-0.14h62.87v-1.42H471.22z
					 M302.16,60.09l41.53-23.98l41.53,23.98v47.96l-12.74,7.36l-28.79,16.62l-31.11-17.96l-10.42-6.01V60.09z M300.69,254.45
					l-41.53,23.98l-41.53-23.98V206.5l41.53-23.98l23.54,13.59l17.99,10.39V254.45z M280.66,193.24l-20.77-11.99v-47.96l41.53-23.98
					l23.64,13.65l17.89,10.33v47.96l-17.89,10.33l-23.64,13.65L280.66,193.24z M385.22,254.45l-41.53,23.98l-41.53-23.98V206.5
					l10.42-6.01l31.11-17.96l28.79,16.62l12.74,7.36V254.45z"/>
				<path class="st15" d="M469.97,254.23l-41.53,23.98l-41.53-23.98v-47.96l17.99-10.39l23.54-13.59l41.53,23.98V254.23z
					 M365.41,193.02l-20.77-11.99v-47.96l20.77-11.99l20.77-11.99l41.53,23.98v47.96l-20.77,11.99l-20.77,11.99L365.41,193.02z
					 M471.44,253.52v-48.09l-42.26-24.4v-48.8l-42.26-24.4v-48.8l-43-24.82l-43,24.82v48.8l-42.26,24.4v48.8l-42.26,24.4v48.3
					H-70.23v1.42h286.74l42.87,24.75l42.26-24.4l42.26,24.4l42.26-24.4l42.26,24.4l43-24.82v-0.14h62.87v-1.42H471.44z
					 M302.38,59.87l41.53-23.98l41.53,23.98v47.96l-12.74,7.36l-28.79,16.62l-31.11-17.96l-10.42-6.01V59.87z M300.91,254.23
					l-41.53,23.98l-41.53-23.98v-47.96l41.53-23.98l23.54,13.59l17.99,10.39V254.23z M280.88,193.02l-20.77-11.99v-47.96
					l41.53-23.98l23.64,13.65l17.89,10.33v47.96l-17.89,10.33l-23.64,13.65L280.88,193.02z M385.44,254.23l-41.53,23.98
					l-41.53-23.98v-47.96l10.42-6.01l31.11-17.96l28.79,16.62l12.74,7.36V254.23z"/>
				<path class="st16" d="M470.19,254.02l-41.53,23.98l-41.53-23.98v-47.96l17.99-10.39l23.54-13.59l41.53,23.98V254.02z
					 M365.63,192.8l-20.77-11.99v-47.96l20.77-11.99l20.77-11.99l41.53,23.98v47.96l-20.77,11.99l-20.77,11.99L365.63,192.8z
					 M471.66,253.3v-48.09l-42.26-24.4v-48.8l-42.26-24.4v-48.8l-43-24.82l-43,24.82v48.8l-42.26,24.4v48.8l-42.26,24.4v48.3H-70.01
					v1.42h286.74l42.87,24.75l42.26-24.4l42.26,24.4l42.26-24.4l42.26,24.4l43-24.82v-0.14h62.87v-1.42H471.66z M302.6,59.65
					l41.53-23.98l41.53,23.98v47.96l-12.74,7.36l-28.79,16.62l-31.11-17.96l-10.42-6.01V59.65z M301.13,254.02l-41.53,23.98
					l-41.53-23.98v-47.96l41.53-23.98l23.54,13.59l17.99,10.39V254.02z M281.1,192.8l-20.77-11.99v-47.96l41.53-23.98l23.64,13.65
					l17.89,10.33v47.96l-17.89,10.33l-23.64,13.65L281.1,192.8z M385.66,254.02l-41.53,23.98l-41.53-23.98v-47.96l10.42-6.01
					l31.11-17.96l28.79,16.62l12.74,7.36V254.02z"/>
				<path class="st17" d="M470.41,253.8l-41.53,23.98l-41.53-23.98v-47.96l17.99-10.39l23.54-13.59l41.53,23.98V253.8z
					 M365.85,192.58l-20.77-11.99v-47.96l20.77-11.99l20.77-11.99l41.53,23.98v47.96l-20.77,11.99l-20.77,11.99L365.85,192.58z
					 M471.88,253.09v-48.09l-42.26-24.4v-48.8l-42.26-24.4v-48.8l-43-24.82l-43,24.82v48.8l-42.26,24.4v48.8l-42.26,24.4v48.3
					H-69.79v1.42h286.74l42.87,24.75l42.26-24.4l42.26,24.4l42.26-24.4l42.26,24.4l43-24.82v-0.14h62.87v-1.42H471.88z
					 M302.82,59.44l41.53-23.98l41.53,23.98v47.96l-12.74,7.36l-28.79,16.62l-31.11-17.96l-10.42-6.01V59.44z M301.35,253.8
					l-41.53,23.98l-41.53-23.98v-47.96l41.53-23.98l23.54,13.59l17.99,10.39V253.8z M281.32,192.58l-20.77-11.99v-47.96l41.53-23.98
					l23.64,13.65l17.89,10.33v47.96l-17.89,10.33l-23.64,13.65L281.32,192.58z M385.88,253.8l-41.53,23.98l-41.53-23.98v-47.96
					l10.42-6.01l31.11-17.96l28.79,16.62l12.74,7.36V253.8z"/>
				<path class="st18" d="M470.63,253.58l-41.53,23.98l-41.53-23.98v-47.96l17.99-10.39l23.54-13.59l41.53,23.98V253.58z
					 M366.07,192.36l-20.77-11.99v-47.96l20.77-11.99l20.77-11.99l41.53,23.98v47.96l-20.77,11.99l-20.77,11.99L366.07,192.36z
					 M472.09,252.87v-48.09l-42.26-24.4v-48.8l-42.26-24.4v-48.8l-43-24.82l-43,24.82v48.8l-42.26,24.4v48.8l-42.26,24.4v48.3
					H-69.58v1.42h286.74l42.87,24.75l42.26-24.4l42.26,24.4l42.26-24.4l42.26,24.4l43-24.82v-0.14h62.87v-1.42H472.09z
					 M303.04,59.22l41.53-23.98l41.53,23.98v47.96l-12.74,7.36l-28.79,16.62l-31.11-17.96l-10.42-6.01V59.22z M301.57,253.58
					l-41.53,23.98l-41.53-23.98v-47.96l41.53-23.98l23.54,13.59l17.99,10.39V253.58z M281.54,192.36l-20.77-11.99v-47.96
					l41.53-23.98l23.64,13.65l17.89,10.33v47.96l-17.89,10.33l-23.64,13.65L281.54,192.36z M386.1,253.58l-41.53,23.98l-41.53-23.98
					v-47.96l10.42-6.01l31.11-17.96l28.79,16.62l12.74,7.36V253.58z"/>
				<path class="st19" d="M470.84,253.36l-41.53,23.98l-41.53-23.98v-47.96l17.99-10.39l23.54-13.59l41.53,23.98V253.36z
					 M366.28,192.15l-20.77-11.99V132.2l20.77-11.99l20.77-11.99l41.53,23.98v47.96l-20.77,11.99l-20.77,11.99L366.28,192.15z
					 M472.31,252.65v-48.09l-42.26-24.4v-48.8l-42.26-24.4v-48.8l-43-24.82l-43,24.82v48.8l-42.26,24.4v48.8l-42.26,24.4v48.3
					H-69.36v1.42h286.74l42.87,24.75l42.26-24.4l42.26,24.4l42.26-24.4l42.26,24.4l43-24.82v-0.14h62.87v-1.42H472.31z M303.25,59
					l41.53-23.98L386.32,59v47.96l-12.74,7.36l-28.79,16.62l-31.11-17.96l-10.42-6.01V59z M301.79,253.36l-41.53,23.98l-41.53-23.98
					v-47.96l41.53-23.98l23.54,13.59l17.99,10.39V253.36z M281.76,192.15l-20.77-11.99V132.2l41.53-23.98l23.64,13.65l17.89,10.33
					v47.96l-17.89,10.33l-23.64,13.65L281.76,192.15z M386.32,253.36l-41.53,23.98l-41.53-23.98v-47.96l10.42-6.01l31.11-17.96
					l28.79,16.62l12.74,7.36V253.36z"/>
				<path class="st20" d="M471.06,253.14l-41.53,23.98L388,253.14v-47.96l17.99-10.39l23.54-13.59l41.53,23.98V253.14z
					 M366.5,191.93l-20.77-11.99v-47.96l20.77-11.99l20.77-11.99l41.53,23.98v47.96l-20.77,11.99l-20.77,11.99L366.5,191.93z
					 M472.53,252.43v-48.09l-42.26-24.4v-48.8L388,106.74v-48.8l-43-24.82l-43,24.82v48.8l-42.26,24.4v48.8l-42.26,24.4v48.3H-69.14
					v1.42H217.6l42.87,24.75l42.26-24.4l42.26,24.4l42.26-24.4l42.26,24.4l43-24.82v-0.14h62.87v-1.42H472.53z M303.47,58.78
					L345,34.8l41.53,23.98v47.96l-12.74,7.36L345,130.71l-31.11-17.96l-10.42-6.01V58.78z M302.01,253.14l-41.53,23.98l-41.53-23.98
					v-47.96l41.53-23.98l23.54,13.59l17.99,10.39V253.14z M281.97,191.93l-20.77-11.99v-47.96l41.53-23.98l23.64,13.65l17.89,10.33
					v47.96l-17.89,10.33l-23.64,13.65L281.97,191.93z M386.53,253.14L345,277.12l-41.53-23.98v-47.96l10.42-6.01L345,181.21
					l28.79,16.62l12.74,7.36V253.14z"/>
				<path class="st21" d="M471.28,252.92l-41.53,23.98l-41.53-23.98v-47.96l17.99-10.39l23.54-13.59l41.53,23.98V252.92z
					 M366.72,191.71l-20.77-11.99v-47.96l20.77-11.99l20.77-11.99l41.53,23.98v47.96l-20.77,11.99l-20.77,11.99L366.72,191.71z
					 M472.75,252.21v-48.09l-42.26-24.4v-48.8l-42.26-24.4v-48.8l-43-24.82l-43,24.82v48.8l-42.26,24.4v48.8l-42.26,24.4v48.3
					H-68.92v1.42h286.74l42.87,24.75l42.26-24.4l42.26,24.4l42.26-24.4l42.26,24.4l43-24.82v-0.14h62.87v-1.42H472.75z
					 M303.69,58.56l41.53-23.98l41.53,23.98v47.96l-12.74,7.36l-28.79,16.62l-31.11-17.96l-10.42-6.01V58.56z M302.22,252.92
					l-41.53,23.98l-41.53-23.98v-47.96l41.53-23.98l23.54,13.59l17.99,10.39V252.92z M282.19,191.71l-20.77-11.99v-47.96
					l41.53-23.98l23.64,13.65l17.89,10.33v47.96l-17.89,10.33l-23.64,13.65L282.19,191.71z M386.75,252.92l-41.53,23.98
					l-41.53-23.98v-47.96l10.42-6.01l31.11-17.96l28.79,16.62l12.74,7.36V252.92z"/>
				<path class="st22" d="M471.5,252.71l-41.53,23.98l-41.53-23.98v-47.96l17.99-10.39l23.54-13.59l41.53,23.98V252.71z
					 M366.94,191.49l-20.77-11.99v-47.96l20.77-11.99l20.77-11.99l41.53,23.98v47.96l-20.77,11.99l-20.77,11.99L366.94,191.49z
					 M472.97,251.99V203.9l-42.26-24.4v-48.8l-42.26-24.4V57.5l-43-24.82l-43,24.82v48.8l-42.26,24.4v48.8l-42.26,24.4v48.3H-68.7
					v1.42h286.74l42.87,24.75l42.26-24.4l42.26,24.4l42.26-24.4l42.26,24.4l43-24.82v-0.14h62.87v-1.42H472.97z M303.91,58.34
					l41.53-23.98l41.53,23.98v47.96l-12.74,7.36l-28.79,16.62l-31.11-17.96l-10.42-6.01V58.34z M302.44,252.71l-41.53,23.98
					l-41.53-23.98v-47.96l41.53-23.98l23.54,13.59l17.99,10.39V252.71z M282.41,191.49l-20.77-11.99v-47.96l41.53-23.98l23.64,13.65
					l17.89,10.33v47.96l-17.89,10.33l-23.64,13.65L282.41,191.49z M386.97,252.71l-41.53,23.98l-41.53-23.98v-47.96l10.42-6.01
					l31.11-17.96l28.79,16.62l12.74,7.36V252.71z"/>
				<path class="st23" d="M471.72,252.49l-41.53,23.98l-41.53-23.98v-47.96l17.99-10.39l23.54-13.59l41.53,23.98V252.49z
					 M367.16,191.27l-20.77-11.99v-47.96l20.77-11.99l20.77-11.99l41.53,23.98v47.96l-20.77,11.99l-20.77,11.99L367.16,191.27z
					 M473.19,251.78v-48.09l-42.26-24.4v-48.8l-42.26-24.4v-48.8l-43-24.82l-43,24.82v48.8l-42.26,24.4v48.8l-42.26,24.4v48.3
					H-68.48v1.42h286.74l42.87,24.75l42.26-24.4l42.26,24.4l42.26-24.4l42.26,24.4l43-24.82v-0.14h62.87v-1.42H473.19z
					 M304.13,58.13l41.53-23.98l41.53,23.98v47.96l-12.74,7.36l-28.79,16.62l-31.11-17.96l-10.42-6.01V58.13z M302.66,252.49
					l-41.53,23.98l-41.53-23.98v-47.96l41.53-23.98l23.54,13.59l17.99,10.39V252.49z M282.63,191.27l-20.77-11.99v-47.96
					l41.53-23.98L327.04,121l17.89,10.33v47.96l-17.89,10.33l-23.64,13.65L282.63,191.27z M387.19,252.49l-41.53,23.98l-41.53-23.98
					v-47.96l10.42-6.01l31.11-17.96l28.79,16.62l12.74,7.36V252.49z"/>
				<path class="st24" d="M471.94,252.27l-41.53,23.98l-41.53-23.98v-47.96l17.99-10.39l23.54-13.59l41.53,23.98V252.27z
					 M367.38,191.05l-20.77-11.99v-47.96l20.77-11.99l20.77-11.99l41.53,23.98v47.96l-20.77,11.99l-20.77,11.99L367.38,191.05z
					 M473.4,251.56v-48.09l-42.26-24.4v-48.8l-42.26-24.4v-48.8l-43-24.82l-43,24.82v48.8l-42.26,24.4v48.8l-42.26,24.4v48.3H-68.27
					v1.42h286.74l42.87,24.75l42.26-24.4l42.26,24.4l42.26-24.4l42.26,24.4l43-24.82v-0.14h62.87v-1.42H473.4z M304.35,57.91
					l41.53-23.98l41.53,23.98v47.96l-12.74,7.36l-28.79,16.62l-31.11-17.96l-10.42-6.01V57.91z M302.88,252.27l-41.53,23.98
					l-41.53-23.98v-47.96l41.53-23.98l23.54,13.59l17.99,10.39V252.27z M282.85,191.05l-20.77-11.99v-47.96l41.53-23.98l23.64,13.65
					l17.89,10.33v47.96l-17.89,10.33l-23.64,13.65L282.85,191.05z M387.41,252.27l-41.53,23.98l-41.53-23.98v-47.96l10.42-6.01
					l31.11-17.96l28.79,16.62l12.74,7.36V252.27z"/>
				<path class="st25" d="M472.15,252.05l-41.53,23.98l-41.53-23.98V204.1l17.99-10.39l23.54-13.59l41.53,23.98V252.05z
					 M367.59,190.84l-20.77-11.99v-47.96l20.77-11.99l20.77-11.99l41.53,23.98v47.96l-20.77,11.99l-20.77,11.99L367.59,190.84z
					 M473.62,251.34v-48.09l-42.26-24.4v-48.8l-42.26-24.4v-48.8l-43-24.82l-43,24.82v48.8l-42.26,24.4v48.8l-42.26,24.4v48.3
					H-68.05v1.42h286.74l42.87,24.75l42.26-24.4l42.26,24.4l42.26-24.4l42.26,24.4l43-24.82v-0.14h62.87v-1.42H473.62z
					 M304.56,57.69l41.53-23.98l41.53,23.98v47.96L374.88,113l-28.79,16.62l-31.11-17.96l-10.42-6.01V57.69z M303.1,252.05
					l-41.53,23.98l-41.53-23.98V204.1l41.53-23.98l23.54,13.59l17.99,10.39V252.05z M283.07,190.84l-20.77-11.99v-47.96l41.53-23.98
					l23.64,13.65l17.89,10.33v47.96l-17.89,10.33l-23.64,13.65L283.07,190.84z M387.63,252.05l-41.53,23.98l-41.53-23.98V204.1
					l10.42-6.01l31.11-17.96l28.79,16.62l12.74,7.36V252.05z"/>
				<path class="st26" d="M472.37,251.83l-41.53,23.98l-41.53-23.98v-47.96l17.99-10.39l23.54-13.59l41.53,23.98V251.83z
					 M367.81,190.62l-20.77-11.99v-47.96l20.77-11.99l20.77-11.99l41.53,23.98v47.96l-20.77,11.99l-20.77,11.99L367.81,190.62z
					 M473.84,251.12v-48.09l-42.26-24.4v-48.8l-42.26-24.4v-48.8l-43-24.82l-43,24.82v48.8l-42.26,24.4v48.8l-42.26,24.4v48.3
					H-67.83v1.42h286.74l42.87,24.75l42.26-24.4l42.26,24.4l42.26-24.4l42.26,24.4l43-24.82v-0.14h62.87v-1.42H473.84z
					 M304.78,57.47l41.53-23.98l41.53,23.98v47.96l-12.74,7.36l-28.79,16.62l-31.11-17.96l-10.42-6.01V57.47z M303.32,251.83
					l-41.53,23.98l-41.53-23.98v-47.96l41.53-23.98l23.54,13.59l17.99,10.39V251.83z M283.28,190.62l-20.77-11.99v-47.96
					l41.53-23.98l23.64,13.65l17.89,10.33v47.96l-17.89,10.33l-23.64,13.65L283.28,190.62z M387.84,251.83l-41.53,23.98
					l-41.53-23.98v-47.96l10.42-6.01l31.11-17.96l28.79,16.62l12.74,7.36V251.83z"/>
				<path class="st27" d="M472.59,251.61l-41.53,23.98l-41.53-23.98v-47.96l17.99-10.39l23.54-13.59l41.53,23.98V251.61z
					 M368.03,190.4l-20.77-11.99v-47.96l20.77-11.99l20.77-11.99l41.53,23.98v47.96l-20.77,11.99l-20.77,11.99L368.03,190.4z
					 M474.06,250.9v-48.09l-42.26-24.4v-48.8l-42.26-24.4V56.4l-43-24.82l-43,24.82v48.8l-42.26,24.4v48.8L219,202.81v48.3H-67.61
					v1.42h286.74L262,277.29l42.26-24.4l42.26,24.4l42.26-24.4l42.26,24.4l43-24.82v-0.14h62.87v-1.42H474.06z M305,57.25
					l41.53-23.98l41.53,23.98v47.96l-12.74,7.36l-28.79,16.62l-31.11-17.96L305,105.21V57.25z M303.53,251.61L262,275.59
					l-41.53-23.98v-47.96L262,179.68l23.54,13.59l17.99,10.39V251.61z M283.5,190.4l-20.77-11.99v-47.96l41.53-23.98l23.64,13.65
					l17.89,10.33v47.96l-17.89,10.33l-23.64,13.65L283.5,190.4z M388.06,251.61l-41.53,23.98L305,251.61v-47.96l10.42-6.01
					l31.11-17.96l28.79,16.62l12.74,7.36V251.61z"/>
				<path class="st28" d="M472.81,251.4l-41.53,23.98l-41.53-23.98v-47.96l17.99-10.39l23.54-13.59l41.53,23.98V251.4z
					 M368.25,190.18l-20.77-11.99v-47.96l20.77-11.99l20.77-11.99l41.53,23.98v47.96l-20.77,11.99l-20.77,11.99L368.25,190.18z
					 M474.28,250.68v-48.09l-42.26-24.4v-48.8l-42.26-24.4v-48.8l-43-24.82l-43,24.82v48.8l-42.26,24.4v48.8l-42.26,24.4v48.3
					H-67.39v1.42h286.74l42.87,24.75l42.26-24.4l42.26,24.4l42.26-24.4l42.26,24.4l43-24.82v-0.14h62.87v-1.42H474.28z
					 M305.22,57.03l41.53-23.98l41.53,23.98v47.96l-12.74,7.36l-28.79,16.62L315.64,111l-10.42-6.01V57.03z M303.75,251.4
					l-41.53,23.98l-41.53-23.98v-47.96l41.53-23.98l23.54,13.59l17.99,10.39V251.4z M283.72,190.18l-20.77-11.99v-47.96l41.53-23.98
					l23.64,13.65l17.89,10.33v47.96l-17.89,10.33l-23.64,13.65L283.72,190.18z M388.28,251.4l-41.53,23.98l-41.53-23.98v-47.96
					l10.42-6.01l31.11-17.96l28.79,16.62l12.74,7.36V251.4z"/>
				<path class="st29" d="M473.03,251.18l-41.53,23.98l-41.53-23.98v-47.96l17.99-10.39l23.54-13.59l41.53,23.98V251.18z
					 M368.47,189.96l-20.77-11.99v-47.96l20.77-11.99l20.77-11.99l41.53,23.98v47.96L410,189.96l-20.77,11.99L368.47,189.96z
					 M474.5,250.47v-48.09l-42.26-24.4v-48.8l-42.26-24.4v-48.8l-43-24.82l-43,24.82v48.8l-42.26,24.4v48.8l-42.26,24.4v48.3H-67.17
					v1.42h286.74l42.87,24.75l42.26-24.4l42.26,24.4l42.26-24.4l42.26,24.4l43-24.82v-0.14h62.87v-1.42H474.5z M305.44,56.81
					l41.53-23.98l41.53,23.98v47.96l-12.74,7.36l-28.79,16.62l-31.11-17.96l-10.42-6.01V56.81z M303.97,251.18l-41.53,23.98
					l-41.53-23.98v-47.96l41.53-23.98l23.54,13.59l17.99,10.39V251.18z M283.94,189.96l-20.77-11.99v-47.96l41.53-23.98l23.64,13.65
					l17.89,10.33v47.96l-17.89,10.33l-23.64,13.65L283.94,189.96z M388.5,251.18l-41.53,23.98l-41.53-23.98v-47.96l10.42-6.01
					l31.11-17.96l28.79,16.62l12.74,7.36V251.18z"/>
				<path class="st30" d="M473.25,250.96l-41.53,23.98l-41.53-23.98V203l17.99-10.39l23.54-13.59L473.25,203V250.96z M368.69,189.74
					l-20.77-11.99V129.8l20.77-11.99l20.77-11.99l41.53,23.98v47.96l-20.77,11.99l-20.77,11.99L368.69,189.74z M474.71,250.25
					v-48.09l-42.26-24.4v-48.8l-42.26-24.4v-48.8l-43-24.82l-43,24.82v48.8l-42.26,24.4v48.8l-42.26,24.4v48.3H-66.96v1.42h286.74
					l42.87,24.75l42.26-24.4l42.26,24.4l42.26-24.4l42.26,24.4l43-24.82v-0.14h62.87v-1.42H474.71z M305.66,56.6l41.53-23.98
					l41.53,23.98v47.96l-12.74,7.36l-28.79,16.62l-31.11-17.96l-10.42-6.01V56.6z M304.19,250.96l-41.53,23.98l-41.53-23.98V203
					l41.53-23.98l23.54,13.59L304.19,203V250.96z M284.16,189.74l-20.77-11.99V129.8l41.53-23.98l23.64,13.65l17.89,10.33v47.96
					l-17.89,10.33l-23.64,13.65L284.16,189.74z M388.72,250.96l-41.53,23.98l-41.53-23.98V203l10.42-6.01l31.11-17.96l28.79,16.62
					l12.74,7.36V250.96z"/>
				<path class="st31" d="M473.46,250.74l-41.53,23.98l-41.53-23.98v-47.96l17.99-10.39l23.54-13.59l41.53,23.98V250.74z
					 M368.9,189.53l-20.77-11.99v-47.96l20.77-11.99l20.77-11.99l41.53,23.98v47.96l-20.77,11.99l-20.77,11.99L368.9,189.53z
					 M474.93,250.03v-48.09l-42.26-24.4v-48.8l-42.26-24.4v-48.8l-43-24.82l-43,24.82v48.8l-42.26,24.4v48.8l-42.26,24.4v48.3
					H-66.74v1.42H220l42.87,24.75l42.26-24.4l42.26,24.4l42.26-24.4l42.26,24.4l43-24.82v-0.14h62.87v-1.42H474.93z M305.88,56.38
					l41.53-23.98l41.53,23.98v47.96l-12.74,7.36l-28.79,16.62l-31.11-17.96l-10.42-6.01V56.38z M304.41,250.74l-41.53,23.98
					l-41.53-23.98v-47.96l41.53-23.98l23.54,13.59l17.99,10.39V250.74z M284.38,189.53l-20.77-11.99v-47.96l41.53-23.98l23.64,13.65
					l17.89,10.33v47.96l-17.89,10.33l-23.64,13.65L284.38,189.53z M388.94,250.74l-41.53,23.98l-41.53-23.98v-47.96l10.42-6.01
					l31.11-17.96l28.79,16.62l12.74,7.36V250.74z"/>
				<path class="st32" d="M473.68,250.52l-41.53,23.98l-41.53-23.98v-47.96l17.99-10.39l23.54-13.59l41.53,23.98V250.52z
					 M369.12,189.31l-20.77-11.99v-47.96l20.77-11.99l20.77-11.99l41.53,23.98v47.96l-20.77,11.99l-20.77,11.99L369.12,189.31z
					 M475.15,249.81v-48.09l-42.26-24.4v-48.8l-42.26-24.4v-48.8l-43-24.82l-43,24.82v48.8l-42.26,24.4v48.8l-42.26,24.4v48.3
					H-66.52v1.42h286.74l42.87,24.75l42.26-24.4l42.26,24.4l42.26-24.4l42.26,24.4l43-24.82v-0.14h62.87v-1.42H475.15z
					 M306.09,56.16l41.53-23.98l41.53,23.98v47.96l-12.74,7.36l-28.79,16.62l-31.11-17.96l-10.42-6.01V56.16z M304.63,250.52
					L263.1,274.5l-41.53-23.98v-47.96l41.53-23.98l23.54,13.59l17.99,10.39V250.52z M284.59,189.31l-20.77-11.99v-47.96l41.53-23.98
					L329,119.04l17.89,10.33v47.96L329,187.65l-23.64,13.65L284.59,189.31z M389.15,250.52l-41.53,23.98l-41.53-23.98v-47.96
					l10.42-6.01l31.11-17.96l28.79,16.62l12.74,7.36V250.52z"/>
				<path class="st33" d="M473.9,250.3l-41.53,23.98l-41.53-23.98v-47.96l17.99-10.39l23.54-13.59l41.53,23.98V250.3z
					 M369.34,189.09l-20.77-11.99v-47.96l20.77-11.99l20.77-11.99l41.53,23.98v47.96l-20.77,11.99l-20.77,11.99L369.34,189.09z
					 M475.37,249.59V201.5l-42.26-24.4v-48.8l-42.26-24.4v-48.8l-43-24.82l-43,24.82v48.8l-42.26,24.4v48.8l-42.26,24.4v48.3H-66.3
					v1.42h286.74l42.87,24.75l42.26-24.4l42.26,24.4l42.26-24.4l42.26,24.4l43-24.82v-0.14h62.87v-1.42H475.37z M306.31,55.94
					l41.53-23.98l41.53,23.98v47.96l-12.74,7.36l-28.79,16.62l-31.11-17.96l-10.42-6.01V55.94z M304.84,250.3l-41.53,23.98
					l-41.53-23.98v-47.96l41.53-23.98l23.54,13.59l17.99,10.39V250.3z M284.81,189.09l-20.77-11.99v-47.96l41.53-23.98l23.64,13.65
					l17.89,10.33v47.96l-17.89,10.33l-23.64,13.65L284.81,189.09z M389.37,250.3l-41.53,23.98l-41.53-23.98v-47.96l10.42-6.01
					l31.11-17.96l28.79,16.62l12.74,7.36V250.3z"/>
				<path class="st34" d="M474.12,250.09l-41.53,23.98l-41.53-23.98v-47.96l17.99-10.39l23.54-13.59l41.53,23.98V250.09z
					 M369.56,188.87l-20.77-11.99v-47.96l20.77-11.99l20.77-11.99l41.53,23.98v47.96l-20.77,11.99l-20.77,11.99L369.56,188.87z
					 M475.59,249.37v-48.09l-42.26-24.4v-48.8l-42.26-24.4v-48.8l-43-24.82l-43,24.82v48.8l-42.26,24.4v48.8l-42.26,24.4v48.3
					H-66.08v1.42h286.74l42.87,24.75l42.26-24.4l42.26,24.4l42.26-24.4l42.26,24.4l43-24.82v-0.14h62.87v-1.42H475.59z
					 M306.53,55.72l41.53-23.98l41.53,23.98v47.96l-12.74,7.36l-28.79,16.62l-31.11-17.96l-10.42-6.01V55.72z M305.06,250.09
					l-41.53,23.98L222,250.09v-47.96l41.53-23.98l23.54,13.59l17.99,10.39V250.09z M285.03,188.87l-20.77-11.99v-47.96l41.53-23.98
					l23.64,13.65l17.89,10.33v47.96l-17.89,10.33l-23.64,13.65L285.03,188.87z M389.59,250.09l-41.53,23.98l-41.53-23.98v-47.96
					l10.42-6.01l31.11-17.96l28.79,16.62l12.74,7.36V250.09z"/>
				<path class="st35" d="M474.34,249.87l-41.53,23.98l-41.53-23.98v-47.96l17.99-10.39l23.54-13.59l41.53,23.98V249.87z
					 M369.78,188.65l-20.77-11.99v-47.96l20.77-11.99l20.77-11.99l41.53,23.98v47.96l-20.77,11.99l-20.77,11.99L369.78,188.65z
					 M475.81,249.16v-48.09l-42.26-24.4v-48.8l-42.26-24.4v-48.8l-43-24.82l-43,24.82v48.8l-42.26,24.4v48.8l-42.26,24.4v48.3
					H-65.86v1.42h286.74l42.87,24.75l42.26-24.4l42.26,24.4l42.26-24.4l42.26,24.4l43-24.82v-0.14h62.87v-1.42H475.81z M306.75,55.5
					l41.53-23.98l41.53,23.98v47.96l-12.74,7.36l-28.79,16.62l-31.11-17.96l-10.42-6.01V55.5z M305.28,249.87l-41.53,23.98
					l-41.53-23.98v-47.96l41.53-23.98l23.54,13.59l17.99,10.39V249.87z M285.25,188.65l-20.77-11.99v-47.96l41.53-23.98l23.64,13.65
					l17.89,10.33v47.96l-17.89,10.33l-23.64,13.65L285.25,188.65z M389.81,249.87l-41.53,23.98l-41.53-23.98v-47.96l10.42-6.01
					l31.11-17.96l28.79,16.62l12.74,7.36V249.87z"/>
				<path class="st36" d="M474.56,249.65l-41.53,23.98l-41.53-23.98v-47.96l17.99-10.39l23.54-13.59l41.53,23.98V249.65z
					 M370,188.43l-20.77-11.99v-47.96L370,116.5l20.77-11.99l41.53,23.98v47.96l-20.77,11.99l-20.77,11.99L370,188.43z
					 M476.02,248.94v-48.09l-42.26-24.4v-48.8l-42.26-24.4v-48.8l-43-24.82l-43,24.82v48.8l-42.26,24.4v48.8l-42.26,24.4v48.3
					H-65.65v1.42H221.1l42.87,24.75l42.26-24.4l42.26,24.4l42.26-24.4l42.26,24.4l43-24.82v-0.14h62.87v-1.42H476.02z M306.97,55.29
					l41.53-23.98l41.53,23.98v47.96l-12.74,7.36l-28.79,16.62l-31.11-17.96l-10.42-6.01V55.29z M305.5,249.65l-41.53,23.98
					l-41.53-23.98v-47.96l41.53-23.98l23.54,13.59l17.99,10.39V249.65z M285.47,188.43l-20.77-11.99v-47.96l41.53-23.98l23.64,13.65
					l17.89,10.33v47.96l-17.89,10.33l-23.64,13.65L285.47,188.43z M390.03,249.65l-41.53,23.98l-41.53-23.98v-47.96l10.42-6.01
					l31.11-17.96l28.79,16.62l12.74,7.36V249.65z"/>
				<path class="st37" d="M474.77,249.43l-41.53,23.98l-41.53-23.98v-47.96l17.99-10.39l23.54-13.59l41.53,23.98V249.43z
					 M370.21,188.22l-20.77-11.99v-47.96l20.77-11.99l20.77-11.99l41.53,23.98v47.96l-20.77,11.99l-20.77,11.99L370.21,188.22z
					 M476.24,248.72v-48.09l-42.26-24.4v-48.8l-42.26-24.4v-48.8l-43-24.82l-43,24.82v48.8l-42.26,24.4v48.8l-42.26,24.4v48.3
					H-65.43v1.42h286.74l42.87,24.75l42.26-24.4l42.26,24.4l42.26-24.4l42.26,24.4l43-24.82v-0.14h62.87v-1.42H476.24z
					 M307.19,55.07l41.53-23.98l41.53,23.98v47.96l-12.74,7.36L348.72,127l-31.11-17.96l-10.42-6.01V55.07z M305.72,249.43
					l-41.53,23.98l-41.53-23.98v-47.96l41.53-23.98l23.54,13.59l17.99,10.39V249.43z M285.69,188.22l-20.77-11.99v-47.96
					l41.53-23.98l23.64,13.65l17.89,10.33v47.96l-17.89,10.33l-23.64,13.65L285.69,188.22z M390.25,249.43l-41.53,23.98
					l-41.53-23.98v-47.96l10.42-6.01l31.11-17.96l28.79,16.62l12.74,7.36V249.43z"/>
				<path class="st38" d="M474.99,249.21l-41.53,23.98l-41.53-23.98v-47.96l17.99-10.39l23.54-13.59l41.53,23.98V249.21z
					 M370.43,188l-20.77-11.99v-47.96l20.77-11.99l20.77-11.99l41.53,23.98v47.96L411.96,188l-20.77,11.99L370.43,188z
					 M476.46,248.5v-48.09l-42.26-24.4v-48.8l-42.26-24.4V54l-43-24.82l-43,24.82v48.8l-42.26,24.4v48.8l-42.26,24.4v48.3H-65.21
					v1.42h286.74l42.87,24.75l42.26-24.4l42.26,24.4l42.26-24.4l42.26,24.4l43-24.82v-0.14h62.87v-1.42H476.46z M307.4,54.85
					l41.53-23.98l41.53,23.98v47.96l-12.74,7.36l-28.79,16.62l-31.11-17.96l-10.42-6.01V54.85z M305.94,249.21l-41.53,23.98
					l-41.53-23.98v-47.96l41.53-23.98l23.54,13.59l17.99,10.39V249.21z M285.9,188l-20.77-11.99v-47.96l41.53-23.98l23.64,13.65
					l17.89,10.33v47.96l-17.89,10.33l-23.64,13.65L285.9,188z M390.46,249.21l-41.53,23.98l-41.53-23.98v-47.96l10.42-6.01
					l31.11-17.96l28.79,16.62l12.74,7.36V249.21z"/>
				<path class="st39" d="M475.21,248.99l-41.53,23.98l-41.53-23.98v-47.96l17.99-10.39l23.54-13.59l41.53,23.98V248.99z
					 M370.65,187.78l-20.77-11.99v-47.96l20.77-11.99l20.77-11.99l41.53,23.98v47.96l-20.77,11.99l-20.77,11.99L370.65,187.78z
					 M476.68,248.28v-48.09l-42.26-24.4v-48.8l-42.26-24.4v-48.8l-43-24.82l-43,24.82v48.8l-42.26,24.4v48.8l-42.26,24.4v48.3
					H-64.99v1.42h286.74l42.87,24.75l42.26-24.4l42.26,24.4l42.26-24.4l42.26,24.4l43-24.82v-0.14h62.87v-1.42H476.68z
					 M307.62,54.63l41.53-23.98l41.53,23.98v47.96l-12.74,7.36l-28.79,16.62l-31.11-17.96l-10.42-6.01V54.63z M306.15,248.99
					l-41.53,23.98l-41.53-23.98v-47.96l41.53-23.98l23.54,13.59l17.99,10.39V248.99z M286.12,187.78l-20.77-11.99v-47.96
					l41.53-23.98l23.64,13.65l17.89,10.33v47.96l-17.89,10.33l-23.64,13.65L286.12,187.78z M390.68,248.99l-41.53,23.98
					l-41.53-23.98v-47.96l10.42-6.01l31.11-17.96l28.79,16.62l12.74,7.36V248.99z"/>
				<path class="st40" d="M475.43,248.78l-41.53,23.98l-41.53-23.98v-47.96l17.99-10.39l23.54-13.59l41.53,23.98V248.78z
					 M370.87,187.56l-20.77-11.99v-47.96l20.77-11.99l20.77-11.99l41.53,23.98v47.96l-20.77,11.99l-20.77,11.99L370.87,187.56z
					 M476.9,248.06v-48.09l-42.26-24.4v-48.8l-42.26-24.4v-48.8l-43-24.82l-43,24.82v48.8l-42.26,24.4v48.8l-42.26,24.4v48.3H-64.77
					v1.42h286.74l42.87,24.75l42.26-24.4l42.26,24.4l42.26-24.4l42.26,24.4l43-24.82v-0.14h62.87v-1.42H476.9z M307.84,54.41
					l41.53-23.98l41.53,23.98v47.96l-12.74,7.36l-28.79,16.62l-31.11-17.96l-10.42-6.01V54.41z M306.37,248.78l-41.53,23.98
					l-41.53-23.98v-47.96l41.53-23.98l23.54,13.59l17.99,10.39V248.78z M286.34,187.56l-20.77-11.99v-47.96l41.53-23.98l23.64,13.65
					l17.89,10.33v47.96l-17.89,10.33l-23.64,13.65L286.34,187.56z M390.9,248.78l-41.53,23.98l-41.53-23.98v-47.96l10.42-6.01
					l31.11-17.96l28.79,16.62l12.74,7.36V248.78z"/>
				<path class="st41" d="M475.65,248.56l-41.53,23.98l-41.53-23.98V200.6l17.99-10.39l23.54-13.59l41.53,23.98V248.56z
					 M371.09,187.34l-20.77-11.99V127.4l20.77-11.99l20.77-11.99l41.53,23.98v47.96l-20.77,11.99l-20.77,11.99L371.09,187.34z
					 M477.12,247.85v-48.09l-42.26-24.4v-48.8l-42.26-24.4v-48.8l-43-24.82l-43,24.82v48.8l-42.26,24.4v48.8l-42.26,24.4v48.3
					H-64.55v1.42h286.74l42.87,24.75l42.26-24.4l42.26,24.4l42.26-24.4l42.26,24.4l43-24.82v-0.14h62.87v-1.42H477.12z
					 M308.06,54.19l41.53-23.98l41.53,23.98v47.96l-12.74,7.36l-28.79,16.62l-31.11-17.96l-10.42-6.01V54.19z M306.59,248.56
					l-41.53,23.98l-41.53-23.98V200.6l41.53-23.98l23.54,13.59l17.99,10.39V248.56z M286.56,187.34l-20.77-11.99V127.4l41.53-23.98
					l23.64,13.65l17.89,10.33v47.96l-17.89,10.33l-23.64,13.65L286.56,187.34z M391.12,248.56l-41.53,23.98l-41.53-23.98V200.6
					l10.42-6.01l31.11-17.96l28.79,16.62l12.74,7.36V248.56z"/>
				<path class="st41" d="M475.87,248.34l-41.53,23.98l-41.53-23.98v-47.96L410.8,190l23.54-13.59l41.53,23.98V248.34z
					 M371.31,187.12l-20.77-11.99v-47.96l20.77-11.99l20.77-11.99l41.53,23.98v47.96l-20.77,11.99l-20.77,11.99L371.31,187.12z
					 M477.33,247.63v-48.09l-42.26-24.4v-48.8l-42.26-24.4v-48.8l-43-24.82l-43,24.82v48.8l-42.26,24.4v48.8l-42.26,24.4v48.3
					H-64.33v1.42h286.74l42.87,24.75l42.26-24.4l42.26,24.4l42.26-24.4l42.26,24.4l43-24.82v-0.14h62.87v-1.42H477.33z
					 M308.28,53.98L349.81,30l41.53,23.98v47.96l-12.74,7.36l-28.79,16.62l-31.11-17.96l-10.42-6.01V53.98z M306.81,248.34
					l-41.53,23.98l-41.53-23.98v-47.96l41.53-23.98L288.82,190l17.99,10.39V248.34z M286.78,187.12l-20.77-11.99v-47.96l41.53-23.98
					l23.64,13.65l17.89,10.33v47.96l-17.89,10.33l-23.64,13.65L286.78,187.12z M391.34,248.34l-41.53,23.98l-41.53-23.98v-47.96
					l10.42-6.01l31.11-17.96l28.79,16.62l12.74,7.36V248.34z"/>
				<path class="st42" d="M476.08,248.12l-41.53,23.98l-41.53-23.98v-47.96l17.99-10.39l23.54-13.59l41.53,23.98V248.12z
					 M371.52,186.91l-20.77-11.99v-47.96l20.77-11.99l20.77-11.99l41.53,23.98v47.96l-20.77,11.99l-20.77,11.99L371.52,186.91z
					 M477.55,247.41v-48.09l-42.26-24.4v-48.8l-42.26-24.4v-48.8l-43-24.82l-43,24.82v48.8l-42.26,24.4v48.8l-42.26,24.4v48.3
					H-64.12v1.42h286.74l42.87,24.75l42.26-24.4l42.26,24.4l42.26-24.4l42.26,24.4l43-24.82v-0.14h62.87v-1.42H477.55z M308.5,53.76
					l41.53-23.98l41.53,23.98v47.96l-12.74,7.36l-28.79,16.62l-31.11-17.96l-10.42-6.01V53.76z M307.03,248.12L265.5,272.1
					l-41.53-23.98v-47.96l41.53-23.98l23.54,13.59l17.99,10.39V248.12z M287,186.91l-20.77-11.99v-47.96l41.53-23.98l23.64,13.65
					l17.89,10.33v47.96l-17.89,10.33l-23.64,13.65L287,186.91z M391.56,248.12l-41.53,23.98l-41.53-23.98v-47.96l10.42-6.01
					l31.11-17.96l28.79,16.62l12.74,7.36V248.12z"/>
				<path class="st43" d="M476.3,247.9l-41.53,23.98l-41.53-23.98v-47.96l17.99-10.39l23.54-13.59l41.53,23.98V247.9z
					 M371.74,186.69l-20.77-11.99v-47.96l20.77-11.99l20.77-11.99l41.53,23.98v47.96l-20.77,11.99l-20.77,11.99L371.74,186.69z
					 M477.77,247.19V199.1l-42.26-24.4v-48.8l-42.26-24.4v-48.8l-43-24.82l-43,24.82v48.8l-42.26,24.4v48.8l-42.26,24.4v48.3H-63.9
					v1.42h286.74l42.87,24.75l42.26-24.4l42.26,24.4l42.26-24.4l42.26,24.4l43-24.82v-0.14h62.87v-1.42H477.77z M308.71,53.54
					l41.53-23.98l41.53,23.98v47.96l-12.74,7.36l-28.79,16.62l-31.11-17.96l-10.42-6.01V53.54z M307.25,247.9l-41.53,23.98
					l-41.53-23.98v-47.96l41.53-23.98l23.54,13.59l17.99,10.39V247.9z M287.21,186.69l-20.77-11.99v-47.96l41.53-23.98l23.64,13.65
					l17.89,10.33v47.96l-17.89,10.33l-23.64,13.65L287.21,186.69z M391.77,247.9l-41.53,23.98l-41.53-23.98v-47.96l10.42-6.01
					l31.11-17.96l28.79,16.62l12.74,7.36V247.9z"/>
				<path class="st44" d="M476.52,247.68l-41.53,23.98l-41.53-23.98v-47.96l17.99-10.39l23.54-13.59l41.53,23.98V247.68z
					 M371.96,186.47l-20.77-11.99v-47.96l20.77-11.99l20.77-11.99l41.53,23.98v47.96l-20.77,11.99l-20.77,11.99L371.96,186.47z
					 M477.99,246.97v-48.09l-42.26-24.4v-48.8l-42.26-24.4v-48.8l-43-24.82l-43,24.82v48.8l-42.26,24.4v48.8l-42.26,24.4v48.3
					H-63.68v1.42h286.74l42.87,24.75l42.26-24.4l42.26,24.4l42.26-24.4l42.26,24.4l43-24.82v-0.14h62.87v-1.42H477.99z
					 M308.93,53.32l41.53-23.98l41.53,23.98v47.96l-12.74,7.36l-28.79,16.62l-31.11-17.96l-10.42-6.01V53.32z M307.46,247.68
					l-41.53,23.98l-41.53-23.98v-47.96l41.53-23.98l23.54,13.59l17.99,10.39V247.68z M287.43,186.47l-20.77-11.99v-47.96
					l41.53-23.98l23.64,13.65l17.89,10.33v47.96l-17.89,10.33l-23.64,13.65L287.43,186.47z M391.99,247.68l-41.53,23.98
					l-41.53-23.98v-47.96l10.42-6.01l31.11-17.96l28.79,16.62l12.74,7.36V247.68z"/>
				<path class="st45" d="M476.74,247.47l-41.53,23.98l-41.53-23.98v-47.96l17.99-10.39l23.54-13.59l41.53,23.98V247.47z
					 M372.18,186.25l-20.77-11.99v-47.96l20.77-11.99l20.77-11.99l41.53,23.98v47.96l-20.77,11.99l-20.77,11.99L372.18,186.25z
					 M478.21,246.75v-48.09l-42.26-24.4v-48.8l-42.26-24.4v-48.8l-43-24.82l-43,24.82v48.8l-42.26,24.4v48.8l-42.26,24.4v48.3
					H-63.46v1.42h286.74l42.87,24.75l42.26-24.4l42.26,24.4l42.26-24.4l42.26,24.4l43-24.82v-0.14h62.87v-1.42H478.21z M309.15,53.1
					l41.53-23.98l41.53,23.98v47.96l-12.74,7.36l-28.79,16.62l-31.11-17.96l-10.42-6.01V53.1z M307.68,247.47l-41.53,23.98
					l-41.53-23.98v-47.96l41.53-23.98l23.54,13.59l17.99,10.39V247.47z M287.65,186.25l-20.77-11.99v-47.96l41.53-23.98l23.64,13.65
					l17.89,10.33v47.96l-17.89,10.33l-23.64,13.65L287.65,186.25z M392.21,247.47l-41.53,23.98l-41.53-23.98v-47.96l10.42-6.01
					l31.11-17.96l28.79,16.62l12.74,7.36V247.47z"/>
				<path class="st46" d="M476.96,247.25l-41.53,23.98l-41.53-23.98v-47.96l17.99-10.39l23.54-13.59l41.53,23.98V247.25z
					 M372.4,186.03l-20.77-11.99v-47.96l20.77-11.99l20.77-11.99l41.53,23.98v47.96l-20.77,11.99l-20.77,11.99L372.4,186.03z
					 M478.43,246.54v-48.09l-42.26-24.4v-48.8l-42.26-24.4v-48.8l-43-24.82l-43,24.82v48.8l-42.26,24.4v48.8l-42.26,24.4v48.3
					H-63.24v1.42H223.5l42.87,24.75l42.26-24.4l42.26,24.4l42.26-24.4l42.26,24.4l43-24.82v-0.14h62.87v-1.42H478.43z M309.37,52.88
					l41.53-23.98l41.53,23.98v47.96l-12.74,7.36l-28.79,16.62l-31.11-17.96l-10.42-6.01V52.88z M307.9,247.25l-41.53,23.98
					l-41.53-23.98v-47.96l41.53-23.98l23.54,13.59l17.99,10.39V247.25z M287.87,186.03l-20.77-11.99v-47.96l41.53-23.98l23.64,13.65
					l17.89,10.33v47.96l-17.89,10.33l-23.64,13.65L287.87,186.03z M392.43,247.25l-41.53,23.98l-41.53-23.98v-47.96l10.42-6.01
					l31.11-17.96l28.79,16.62l12.74,7.36V247.25z"/>
				<path class="st47" d="M477.18,247.03l-41.53,23.98l-41.53-23.98v-47.96l17.99-10.39l23.54-13.59l41.53,23.98V247.03z
					 M372.62,185.81l-20.77-11.99v-47.96l20.77-11.99l20.77-11.99l41.53,23.98v47.96l-20.77,11.99l-20.77,11.99L372.62,185.81z
					 M478.64,246.32v-48.09l-42.26-24.4v-48.8l-42.26-24.4v-48.8l-43-24.82l-43,24.82v48.8l-42.26,24.4v48.8l-42.26,24.4v48.3
					H-63.02v1.42h286.74l42.87,24.75l42.26-24.4l42.26,24.4l42.26-24.4l42.26,24.4l43-24.82v-0.14h62.87v-1.42H478.64z
					 M309.59,52.67l41.53-23.98l41.53,23.98v47.96l-12.74,7.36l-28.79,16.62L320,106.64l-10.42-6.01V52.67z M308.12,247.03
					l-41.53,23.98l-41.53-23.98v-47.96l41.53-23.98l23.54,13.59l17.99,10.39V247.03z M288.09,185.81l-20.77-11.99v-47.96
					l41.53-23.98l23.64,13.65l17.89,10.33v47.96l-17.89,10.33l-23.64,13.65L288.09,185.81z M392.65,247.03l-41.53,23.98
					l-41.53-23.98v-47.96l10.42-6.01l31.11-17.96l28.79,16.62l12.74,7.36V247.03z"/>
				<path class="st48" d="M477.39,246.81l-41.53,23.98l-41.53-23.98v-47.96l17.99-10.39l23.54-13.59l41.53,23.98V246.81z
					 M372.83,185.6l-20.77-11.99v-47.96l20.77-11.99l20.77-11.99l41.53,23.98v47.96l-20.77,11.99l-20.77,11.99L372.83,185.6z
					 M478.86,246.1v-48.09l-42.26-24.4v-48.8l-42.26-24.4V51.6l-43-24.82l-43,24.82v48.8l-42.26,24.4v48.8l-42.26,24.4v48.3H-62.81
					v1.42h286.74l42.87,24.75l42.26-24.4l42.26,24.4l42.26-24.4l42.26,24.4l43-24.82v-0.14h62.87v-1.42H478.86z M309.81,52.45
					l41.53-23.98l41.53,23.98v47.96l-12.74,7.36l-28.79,16.62l-31.11-17.96l-10.42-6.01V52.45z M308.34,246.81l-41.53,23.98
					l-41.53-23.98v-47.96l41.53-23.98l23.54,13.59l17.99,10.39V246.81z M288.31,185.6l-20.77-11.99v-47.96l41.53-23.98l23.64,13.65
					l17.89,10.33v47.96l-17.89,10.33l-23.64,13.65L288.31,185.6z M392.87,246.81l-41.53,23.98l-41.53-23.98v-47.96l10.42-6.01
					l31.11-17.96l28.79,16.62l12.74,7.36V246.81z"/>
				<path class="st49" d="M477.61,246.59l-41.53,23.98l-41.53-23.98v-47.96l17.99-10.39l23.54-13.59l41.53,23.98V246.59z
					 M373.05,185.38l-20.77-11.99v-47.96l20.77-11.99l20.77-11.99l41.53,23.98v47.96l-20.77,11.99l-20.77,11.99L373.05,185.38z
					 M479.08,245.88v-48.09l-42.26-24.4v-48.8l-42.26-24.4v-48.8l-43-24.82l-43,24.82v48.8l-42.26,24.4v48.8l-42.26,24.4v48.3
					H-62.59v1.42h286.74l42.87,24.75l42.26-24.4l42.26,24.4l42.26-24.4l42.26,24.4l43-24.82v-0.14h62.87v-1.42H479.08z
					 M310.02,52.23l41.53-23.98l41.53,23.98v47.96l-12.74,7.36l-28.79,16.62l-31.11-17.96l-10.42-6.01V52.23z M308.56,246.59
					l-41.53,23.98l-41.53-23.98v-47.96l41.53-23.98l23.54,13.59l17.99,10.39V246.59z M288.52,185.38l-20.77-11.99v-47.96
					l41.53-23.98l23.64,13.65l17.89,10.33v47.96l-17.89,10.33l-23.64,13.65L288.52,185.38z M393.08,246.59l-41.53,23.98
					l-41.53-23.98v-47.96l10.42-6.01l31.11-17.96l28.79,16.62l12.74,7.36V246.59z"/>
				<path class="st50" d="M477.83,246.37l-41.53,23.98l-41.53-23.98v-47.96l17.99-10.39l23.54-13.59l41.53,23.98V246.37z
					 M373.27,185.16l-20.77-11.99v-47.96l20.77-11.99l20.77-11.99l41.53,23.98v47.96l-20.77,11.99l-20.77,11.99L373.27,185.16z
					 M479.3,245.66v-48.09l-42.26-24.4v-48.8l-42.26-24.4v-48.8l-43-24.82l-43,24.82v48.8l-42.26,24.4v48.8l-42.26,24.4v48.3H-62.37
					v1.42h286.74l42.87,24.75l42.26-24.4l42.26,24.4l42.26-24.4l42.26,24.4l43-24.82v-0.14h62.87v-1.42H479.3z M310.24,52.01
					l41.53-23.98l41.53,23.98v47.96l-12.74,7.36l-28.79,16.62l-31.11-17.96l-10.42-6.01V52.01z M308.77,246.37l-41.53,23.98
					l-41.53-23.98v-47.96l41.53-23.98l23.54,13.59l17.99,10.39V246.37z M288.74,185.16l-20.77-11.99v-47.96l41.53-23.98l23.64,13.65
					l17.89,10.33v47.96l-17.89,10.33l-23.64,13.65L288.74,185.16z M393.3,246.37l-41.53,23.98l-41.53-23.98v-47.96l10.42-6.01
					l31.11-17.96l28.79,16.62l12.74,7.36V246.37z"/>
				<path class="st51" d="M478.05,246.16l-41.53,23.98l-41.53-23.98V198.2l17.99-10.39l23.54-13.59l41.53,23.98V246.16z
					 M373.49,184.94l-20.77-11.99V125l20.77-11.99l20.77-11.99L435.78,125v47.96l-20.77,11.99l-20.77,11.99L373.49,184.94z
					 M479.52,245.44v-48.09l-42.26-24.4v-48.8l-42.26-24.4v-48.8l-43-24.82l-43,24.82v48.8l-42.26,24.4v48.8l-42.26,24.4v48.3
					H-62.15v1.42h286.74l42.87,24.75l42.26-24.4l42.26,24.4l42.26-24.4l42.26,24.4l43-24.82v-0.14h62.87v-1.42H479.52z
					 M310.46,51.79l41.53-23.98l41.53,23.98v47.96l-12.74,7.36l-28.79,16.62l-31.11-17.96l-10.42-6.01V51.79z M308.99,246.16
					l-41.53,23.98l-41.53-23.98V198.2l41.53-23.98L291,187.81l17.99,10.39V246.16z M288.96,184.94l-20.77-11.99V125l41.53-23.98
					l23.64,13.65L351.26,125v47.96l-17.89,10.33l-23.64,13.65L288.96,184.94z M393.52,246.16l-41.53,23.98l-41.53-23.98V198.2
					l10.42-6.01l31.11-17.96l28.79,16.62l12.74,7.36V246.16z"/>
				<path class="st52" d="M478.27,245.94l-41.53,23.98l-41.53-23.98v-47.96l17.99-10.39L436.74,174l41.53,23.98V245.94z
					 M373.71,184.72l-20.77-11.99v-47.96l20.77-11.99l20.77-11.99L436,124.78v47.96l-20.77,11.99l-20.77,11.99L373.71,184.72z
					 M479.74,245.23v-48.09l-42.26-24.4v-48.8l-42.26-24.4v-48.8l-43-24.82l-43,24.82v48.8l-42.26,24.4v48.8l-42.26,24.4v48.3
					H-61.93v1.42h286.74l42.87,24.75l42.26-24.4l42.26,24.4l42.26-24.4l42.26,24.4l43-24.82v-0.14h62.87v-1.42H479.74z
					 M310.68,51.57l41.53-23.98l41.53,23.98v47.96L381,106.89l-28.79,16.62l-31.11-17.96l-10.42-6.01V51.57z M309.21,245.94
					l-41.53,23.98l-41.53-23.98v-47.96L267.68,174l23.54,13.59l17.99,10.39V245.94z M289.18,184.72l-20.77-11.99v-47.96l41.53-23.98
					l23.64,13.65l17.89,10.33v47.96l-17.89,10.33l-23.64,13.65L289.18,184.72z M393.74,245.94l-41.53,23.98l-41.53-23.98v-47.96
					l10.42-6.01L352.21,174L381,190.63l12.74,7.36V245.94z"/>
				<path class="st53" d="M478.49,245.72l-41.53,23.98l-41.53-23.98v-47.96l17.99-10.39l23.54-13.59l41.53,23.98V245.72z
					 M373.93,184.5l-20.77-11.99v-47.96l20.77-11.99l20.77-11.99l41.53,23.98v47.96l-20.77,11.99l-20.77,11.99L373.93,184.5z
					 M479.95,245.01v-48.09l-42.26-24.4v-48.8l-42.26-24.4v-48.8l-43-24.82l-43,24.82v48.8l-42.26,24.4v48.8l-42.26,24.4v48.3
					H-61.71v1.42h286.74l42.87,24.75l42.26-24.4l42.26,24.4l42.26-24.4l42.26,24.4l43-24.82v-0.14h62.87v-1.42H479.95z M310.9,51.36
					l41.53-23.98l41.53,23.98v47.96l-12.74,7.36l-28.79,16.62l-31.11-17.96l-10.42-6.01V51.36z M309.43,245.72L267.9,269.7
					l-41.53-23.98v-47.96l41.53-23.98l23.54,13.59l17.99,10.39V245.72z M289.4,184.5l-20.77-11.99v-47.96l41.53-23.98l23.64,13.65
					l17.89,10.33v47.96l-17.89,10.33l-23.64,13.65L289.4,184.5z M393.96,245.72l-41.53,23.98l-41.53-23.98v-47.96l10.42-6.01
					l31.11-17.96l28.79,16.62l12.74,7.36V245.72z"/>
				<path class="st54" d="M478.7,245.5l-41.53,23.98l-41.53-23.98v-47.96l17.99-10.39l23.54-13.59l41.53,23.98V245.5z
					 M374.14,184.29l-20.77-11.99v-47.96l20.77-11.99l20.77-11.99l41.53,23.98v47.96l-20.77,11.99l-20.77,11.99L374.14,184.29z
					 M480.17,244.79V196.7l-42.26-24.4v-48.8l-42.26-24.4v-48.8l-43-24.82l-43,24.82v48.8l-42.26,24.4v48.8l-42.26,24.4V245H-61.5
					v1.42h286.74l42.87,24.75l42.26-24.4l42.26,24.4l42.26-24.4l42.26,24.4l43-24.82v-0.14h62.87v-1.42H480.17z M311.12,51.14
					l41.53-23.98l41.53,23.98v47.96l-12.74,7.36l-28.79,16.62l-31.11-17.96l-10.42-6.01V51.14z M309.65,245.5l-41.53,23.98
					l-41.53-23.98v-47.96l41.53-23.98l23.54,13.59l17.99,10.39V245.5z M289.62,184.29l-20.77-11.99v-47.96l41.53-23.98l23.64,13.65
					l17.89,10.33v47.96l-17.89,10.33l-23.64,13.65L289.62,184.29z M394.18,245.5l-41.53,23.98l-41.53-23.98v-47.96l10.42-6.01
					l31.11-17.96l28.79,16.62l12.74,7.36V245.5z"/>
				<path class="st55" d="M478.92,245.28l-41.53,23.98l-41.53-23.98v-47.96l17.99-10.39l23.54-13.59l41.53,23.98V245.28z
					 M374.36,184.07l-20.77-11.99v-47.96l20.77-11.99l20.77-11.99l41.53,23.98v47.96l-20.77,11.99l-20.77,11.99L374.36,184.07z
					 M480.39,244.57v-48.09l-42.26-24.4v-48.8l-42.26-24.4v-48.8l-43-24.82l-43,24.82v48.8l-42.26,24.4v48.8l-42.26,24.4v48.3
					H-61.28v1.42h286.74l42.87,24.75l42.26-24.4l42.26,24.4l42.26-24.4l42.26,24.4l43-24.82v-0.14h62.87v-1.42H480.39z
					 M311.33,50.92l41.53-23.98l41.53,23.98v47.96l-12.74,7.36l-28.79,16.62l-31.11-17.96l-10.42-6.01V50.92z M309.87,245.28
					l-41.53,23.98l-41.53-23.98v-47.96l41.53-23.98l23.54,13.59l17.99,10.39V245.28z M289.83,184.07l-20.77-11.99v-47.96
					l41.53-23.98l23.64,13.65l17.89,10.33v47.96l-17.89,10.33l-23.64,13.65L289.83,184.07z M394.39,245.28l-41.53,23.98
					l-41.53-23.98v-47.96l10.42-6.01l31.11-17.96l28.79,16.62l12.74,7.36V245.28z"/>
				<path class="st56" d="M479.14,245.06l-41.53,23.98l-41.53-23.98v-47.96l17.99-10.39l23.54-13.59l41.53,23.98V245.06z
					 M374.58,183.85l-20.77-11.99V123.9l20.77-11.99l20.77-11.99l41.53,23.98v47.96l-20.77,11.99l-20.77,11.99L374.58,183.85z
					 M480.61,244.35v-48.09l-42.26-24.4v-48.8l-42.26-24.4v-48.8l-43-24.82l-43,24.82v48.8l-42.26,24.4v48.8l-42.26,24.4v48.3
					H-61.06v1.42h286.74l42.87,24.75l42.26-24.4l42.26,24.4l42.26-24.4l42.26,24.4l43-24.82v-0.14h62.87v-1.42H480.61z M311.55,50.7
					l41.53-23.98l41.53,23.98v47.96l-12.74,7.36l-28.79,16.62l-31.11-17.96l-10.42-6.01V50.7z M310.08,245.06l-41.53,23.98
					l-41.53-23.98v-47.96l41.53-23.98l23.54,13.59l17.99,10.39V245.06z M290.05,183.85l-20.77-11.99V123.9l41.53-23.98l23.64,13.65
					l17.89,10.33v47.96l-17.89,10.33l-23.64,13.65L290.05,183.85z M394.61,245.06l-41.53,23.98l-41.53-23.98v-47.96l10.42-6.01
					l31.11-17.96l28.79,16.62l12.74,7.36V245.06z"/>
				<path class="st57" d="M479.36,244.85l-41.53,23.98l-41.53-23.98v-47.96l17.99-10.39l23.54-13.59l41.53,23.98V244.85z
					 M374.8,183.63l-20.77-11.99v-47.96l20.77-11.99l20.77-11.99l41.53,23.98v47.96l-20.77,11.99l-20.77,11.99L374.8,183.63z
					 M480.83,244.13v-48.09l-42.26-24.4v-48.8l-42.26-24.4v-48.8l-43-24.82l-43,24.82v48.8l-42.26,24.4v48.8l-42.26,24.4v48.3
					H-60.84v1.42H225.9l42.87,24.75l42.26-24.4l42.26,24.4l42.26-24.4l42.26,24.4l43-24.82v-0.14h62.87v-1.42H480.83z M311.77,50.48
					l41.53-23.98l41.53,23.98v47.96l-12.74,7.36l-28.79,16.62l-31.11-17.96l-10.42-6.01V50.48z M310.3,244.85l-41.53,23.98
					l-41.53-23.98v-47.96l41.53-23.98l23.54,13.59l17.99,10.39V244.85z M290.27,183.63l-20.77-11.99v-47.96l41.53-23.98l23.64,13.65
					l17.89,10.33v47.96l-17.89,10.33l-23.64,13.65L290.27,183.63z M394.83,244.85l-41.53,23.98l-41.53-23.98v-47.96l10.42-6.01
					l31.11-17.96l28.79,16.62l12.74,7.36V244.85z"/>
				<path class="st58" d="M479.58,244.63l-41.53,23.98l-41.53-23.98v-47.96l17.99-10.39l23.54-13.59l41.53,23.98V244.63z
					 M375.02,183.41l-20.77-11.99v-47.96l20.77-11.99l20.77-11.99l41.53,23.98v47.96l-20.77,11.99l-20.77,11.99L375.02,183.41z
					 M481.05,243.92v-48.09l-42.26-24.4v-48.8l-42.26-24.4v-48.8l-43-24.82l-43,24.82v48.8l-42.26,24.4v48.8l-42.26,24.4v48.3
					H-60.62v1.42h286.74l42.87,24.75l42.26-24.4l42.26,24.4l42.26-24.4l42.26,24.4l43-24.82v-0.14h62.87v-1.42H481.05z
					 M311.99,50.26l41.53-23.98l41.53,23.98v47.96l-12.74,7.36l-28.79,16.62l-31.11-17.96l-10.42-6.01V50.26z M310.52,244.63
					l-41.53,23.98l-41.53-23.98v-47.96l41.53-23.98l23.54,13.59l17.99,10.39V244.63z M290.49,183.41l-20.77-11.99v-47.96
					l41.53-23.98l23.64,13.65l17.89,10.33v47.96l-17.89,10.33l-23.64,13.65L290.49,183.41z M395.05,244.63l-41.53,23.98
					l-41.53-23.98v-47.96l10.42-6.01l31.11-17.96l28.79,16.62l12.74,7.36V244.63z"/>
				<path class="st59" d="M479.8,244.41l-41.53,23.98l-41.53-23.98v-47.96l17.99-10.39l23.54-13.59l41.53,23.98V244.41z
					 M375.24,183.19l-20.77-11.99v-47.96l20.77-11.99L396,99.27l41.53,23.98v47.96l-20.77,11.99L396,195.18L375.24,183.19z
					 M481.26,243.7v-48.09L439,171.21v-48.8L396.74,98V49.2l-43-24.82l-43,24.82V98l-42.26,24.4v48.8l-42.26,24.4v48.3H-60.4v1.42
					h286.74l42.87,24.75l42.26-24.4l42.26,24.4l42.26-24.4l42.26,24.4l43-24.82v-0.14h62.87v-1.42H481.26z M312.21,50.05
					l41.53-23.98l41.53,23.98V98l-12.74,7.36l-28.79,16.62l-31.11-17.96L312.21,98V50.05z M310.74,244.41l-41.53,23.98l-41.53-23.98
					v-47.96l41.53-23.98l23.54,13.59l17.99,10.39V244.41z M290.71,183.19l-20.77-11.99v-47.96l41.53-23.98l23.64,13.65L353,123.25
					v47.96l-17.89,10.33l-23.64,13.65L290.71,183.19z M395.27,244.41l-41.53,23.98l-41.53-23.98v-47.96l10.42-6.01l31.11-17.96
					l28.79,16.62l12.74,7.36V244.41z"/>
				<path class="st60" d="M480.01,244.19l-41.53,23.98l-41.53-23.98v-47.96l17.99-10.39l23.54-13.59l41.53,23.98V244.19z
					 M375.45,182.98l-20.77-11.99v-47.96l20.77-11.99l20.77-11.99l41.53,23.98v47.96l-20.77,11.99l-20.77,11.99L375.45,182.98z
					 M481.48,243.48v-48.09l-42.26-24.4v-48.8l-42.26-24.4v-48.8l-43-24.82l-43,24.82v48.8l-42.26,24.4v48.8l-42.26,24.4v48.3
					H-60.19v1.42h286.74l42.87,24.75l42.26-24.4l42.26,24.4l42.26-24.4l42.26,24.4l43-24.82v-0.14h62.87v-1.42H481.48z
					 M312.43,49.83l41.53-23.98l41.53,23.98v47.96l-12.74,7.36l-28.79,16.62l-31.11-17.96l-10.42-6.01V49.83z M310.96,244.19
					l-41.53,23.98l-41.53-23.98v-47.96l41.53-23.98l23.54,13.59l17.99,10.39V244.19z M290.93,182.98l-20.77-11.99v-47.96
					l41.53-23.98l23.64,13.65l17.89,10.33v47.96l-17.89,10.33l-23.64,13.65L290.93,182.98z M395.49,244.19l-41.53,23.98
					l-41.53-23.98v-47.96l10.42-6.01l31.11-17.96l28.79,16.62l12.74,7.36V244.19z"/>
				<path class="st61" d="M480.23,243.97l-41.53,23.98l-41.53-23.98v-47.96l17.99-10.39l23.54-13.59l41.53,23.98V243.97z
					 M375.67,182.76l-20.77-11.99v-47.96l20.77-11.99l20.77-11.99l41.53,23.98v47.96l-20.77,11.99l-20.77,11.99L375.67,182.76z
					 M481.7,243.26v-48.09l-42.26-24.4v-48.8l-42.26-24.4v-48.8l-43-24.82l-43,24.82v48.8l-42.26,24.4v48.8l-42.26,24.4v48.3H-59.97
					v1.42h286.74l42.87,24.75l42.26-24.4l42.26,24.4l42.26-24.4l42.26,24.4l43-24.82v-0.14h62.87v-1.42H481.7z M312.64,49.61
					l41.53-23.98l41.53,23.98v47.96l-12.74,7.36l-28.79,16.62l-31.11-17.96l-10.42-6.01V49.61z M311.18,243.97l-41.53,23.98
					l-41.53-23.98v-47.96l41.53-23.98l23.54,13.59l17.99,10.39V243.97z M291.14,182.76l-20.77-11.99v-47.96l41.53-23.98l23.64,13.65
					l17.89,10.33v47.96l-17.89,10.33l-23.64,13.65L291.14,182.76z M395.7,243.97l-41.53,23.98l-41.53-23.98v-47.96l10.42-6.01
					l31.11-17.96l28.79,16.62l12.74,7.36V243.97z"/>
				<path class="st62" d="M480.45,243.75l-41.53,23.98l-41.53-23.98V195.8l17.99-10.39l23.54-13.59l41.53,23.98V243.75z
					 M375.89,182.54l-20.77-11.99v-47.96l20.77-11.99l20.77-11.99l41.53,23.98v47.96l-20.77,11.99l-20.77,11.99L375.89,182.54z
					 M481.92,243.04v-48.09l-42.26-24.4v-48.8l-42.26-24.4v-48.8l-43-24.82l-43,24.82v48.8l-42.26,24.4v48.8l-42.26,24.4v48.3
					H-59.75v1.42h286.74l42.87,24.75l42.26-24.4l42.26,24.4l42.26-24.4l42.26,24.4l43-24.82v-0.14h62.87v-1.42H481.92z
					 M312.86,49.39l41.53-23.98l41.53,23.98v47.96l-12.74,7.36l-28.79,16.62l-31.11-17.96l-10.42-6.01V49.39z M311.39,243.75
					l-41.53,23.98l-41.53-23.98V195.8l41.53-23.98l23.54,13.59l17.99,10.39V243.75z M291.36,182.54l-20.77-11.99v-47.96l41.53-23.98
					l23.64,13.65l17.89,10.33v47.96l-17.89,10.33l-23.64,13.65L291.36,182.54z M395.92,243.75l-41.53,23.98l-41.53-23.98V195.8
					l10.42-6.01l31.11-17.96l28.79,16.62l12.74,7.36V243.75z"/>
				<path class="st63" d="M480.67,243.54l-41.53,23.98l-41.53-23.98v-47.96l17.99-10.39l23.54-13.59l41.53,23.98V243.54z
					 M376.11,182.32l-20.77-11.99v-47.96l20.77-11.99l20.77-11.99l41.53,23.98v47.96l-20.77,11.99l-20.77,11.99L376.11,182.32z
					 M482.14,242.82v-48.09l-42.26-24.4v-48.8l-42.26-24.4v-48.8l-43-24.82l-43,24.82v48.8l-42.26,24.4v48.8l-42.26,24.4v48.3
					H-59.53v1.42h286.74l42.87,24.75l42.26-24.4l42.26,24.4l42.26-24.4l42.26,24.4l43-24.82v-0.14h62.87v-1.42H482.14z
					 M313.08,49.17l41.53-23.98l41.53,23.98v47.96l-12.74,7.36l-28.79,16.62l-31.11-17.96l-10.42-6.01V49.17z M311.61,243.54
					l-41.53,23.98l-41.53-23.98v-47.96l41.53-23.98l23.54,13.59l17.99,10.39V243.54z M291.58,182.32l-20.77-11.99v-47.96
					l41.53-23.98l23.64,13.65l17.89,10.33v47.96l-17.89,10.33l-23.64,13.65L291.58,182.32z M396.14,243.54l-41.53,23.98
					l-41.53-23.98v-47.96l10.42-6.01l31.11-17.96l28.79,16.62l12.74,7.36V243.54z"/>
				<path class="st64" d="M480.89,243.32l-41.53,23.98l-41.53-23.98v-47.96l17.99-10.39l23.54-13.59l41.53,23.98V243.32z
					 M376.33,182.1l-20.77-11.99v-47.96l20.77-11.99l20.77-11.99l41.53,23.98v47.96l-20.77,11.99l-20.77,11.99L376.33,182.1z
					 M482.36,242.61v-48.09l-42.26-24.4v-48.8l-42.26-24.4v-48.8l-43-24.82l-43,24.82v48.8l-42.26,24.4v48.8l-42.26,24.4v48.3
					H-59.31v1.42h286.74l42.87,24.75l42.26-24.4l42.26,24.4l42.26-24.4l42.26,24.4l43-24.82v-0.14h62.87v-1.42H482.36z M313.3,48.95
					l41.53-23.98l41.53,23.98v47.96l-12.74,7.36l-28.79,16.62l-31.11-17.96l-10.42-6.01V48.95z M311.83,243.32l-41.53,23.98
					l-41.53-23.98v-47.96l41.53-23.98l23.54,13.59l17.99,10.39V243.32z M291.8,182.1l-20.77-11.99v-47.96l41.53-23.98l23.64,13.65
					l17.89,10.33v47.96l-17.89,10.33l-23.64,13.65L291.8,182.1z M396.36,243.32l-41.53,23.98l-41.53-23.98v-47.96l10.42-6.01
					l31.11-17.96l28.79,16.62l12.74,7.36V243.32z"/>
				<path class="st65" d="M481.11,243.1l-41.53,23.98l-41.53-23.98v-47.96l17.99-10.39l23.54-13.59l41.53,23.98V243.1z
					 M376.55,181.88l-20.77-11.99v-47.96l20.77-11.99l20.77-11.99l41.53,23.98v47.96l-20.77,11.99l-20.77,11.99L376.55,181.88z
					 M482.57,242.39V194.3l-42.26-24.4v-48.8l-42.26-24.4v-48.8l-43-24.82l-43,24.82v48.8l-42.26,24.4v48.8l-42.26,24.4v48.3H-59.09
					v1.42h286.74l42.87,24.75l42.26-24.4l42.26,24.4l42.26-24.4l42.26,24.4l43-24.82v-0.14h62.87v-1.42H482.57z M313.52,48.74
					l41.53-23.98l41.53,23.98v47.96l-12.74,7.36l-28.79,16.62l-31.11-17.96l-10.42-6.01V48.74z M312.05,243.1l-41.53,23.98
					l-41.53-23.98v-47.96l41.53-23.98l23.54,13.59l17.99,10.39V243.1z M292.02,181.88l-20.77-11.99v-47.96l41.53-23.98l23.64,13.65
					l17.89,10.33v47.96l-17.89,10.33l-23.64,13.65L292.02,181.88z M396.58,243.1l-41.53,23.98l-41.53-23.98v-47.96l10.42-6.01
					l31.11-17.96l28.79,16.62l12.74,7.36V243.1z"/>
				<path class="st66" d="M481.32,242.88l-41.53,23.98l-41.53-23.98v-47.96l17.99-10.39l23.54-13.59l41.53,23.98V242.88z
					 M376.76,181.67L356,169.68v-47.96l20.77-11.99l20.77-11.99l41.53,23.98v47.96l-20.77,11.99l-20.77,11.99L376.76,181.67z
					 M482.79,242.17v-48.09l-42.26-24.4v-48.8l-42.26-24.4v-48.8l-43-24.82l-43,24.82v48.8L270,120.87v48.8l-42.26,24.4v48.3H-58.88
					v1.42h286.74l42.87,24.75l42.26-24.4l42.26,24.4l42.26-24.4l42.26,24.4l43-24.82v-0.14h62.87v-1.42H482.79z M313.74,48.52
					l41.53-23.98l41.53,23.98v47.96l-12.74,7.36l-28.79,16.62l-31.11-17.96l-10.42-6.01V48.52z M312.27,242.88l-41.53,23.98
					l-41.53-23.98v-47.96l41.53-23.98l23.54,13.59l17.99,10.39V242.88z M292.24,181.67l-20.77-11.99v-47.96L313,97.74l23.64,13.65
					l17.89,10.33v47.96L336.64,180L313,193.65L292.24,181.67z M396.8,242.88l-41.53,23.98l-41.53-23.98v-47.96l10.42-6.01
					l31.11-17.96l28.79,16.62l12.74,7.36V242.88z"/>
				<path class="st67" d="M481.54,242.66l-41.53,23.98l-41.53-23.98v-47.96l17.99-10.39l23.54-13.59l41.53,23.98V242.66z
					 M376.98,181.45l-20.77-11.99V121.5l20.77-11.99l20.77-11.99l41.53,23.98v47.96l-20.77,11.99l-20.77,11.99L376.98,181.45z
					 M483.01,241.95v-48.09l-42.26-24.4v-48.8l-42.26-24.4v-48.8l-43-24.82l-43,24.82v48.8l-42.26,24.4v48.8l-42.26,24.4v48.3
					H-58.66v1.42h286.74l42.87,24.75l42.26-24.4l42.26,24.4l42.26-24.4l42.26,24.4l43-24.82v-0.14h62.87v-1.42H483.01z M313.95,48.3
					l41.53-23.98l41.53,23.98v47.96l-12.74,7.36l-28.79,16.62l-31.11-17.96l-10.42-6.01V48.3z M312.49,242.66l-41.53,23.98
					l-41.53-23.98v-47.96l41.53-23.98l23.54,13.59l17.99,10.39V242.66z M292.45,181.45l-20.77-11.99V121.5l41.53-23.98l23.64,13.65
					l17.89,10.33v47.96l-17.89,10.33l-23.64,13.65L292.45,181.45z M397.01,242.66l-41.53,23.98l-41.53-23.98v-47.96l10.42-6.01
					l31.11-17.96l28.79,16.62l12.74,7.36V242.66z"/>
				<path class="st68" d="M481.76,242.44l-41.53,23.98l-41.53-23.98v-47.96l17.99-10.39l23.54-13.59l41.53,23.98V242.44z
					 M377.2,181.23l-20.77-11.99v-47.96l20.77-11.99l20.77-11.99l41.53,23.98v47.96l-20.77,11.99l-20.77,11.99L377.2,181.23z
					 M483.23,241.73v-48.09l-42.26-24.4v-48.8l-42.26-24.4v-48.8l-43-24.82l-43,24.82v48.8l-42.26,24.4v48.8l-42.26,24.4v48.3
					H-58.44v1.42H228.3l42.87,24.75l42.26-24.4l42.26,24.4l42.26-24.4l42.26,24.4l43-24.82v-0.14h62.87v-1.42H483.23z M314.17,48.08
					L355.7,24.1l41.53,23.98v47.96l-12.74,7.36l-28.79,16.62l-31.11-17.96l-10.42-6.01V48.08z M312.7,242.44l-41.53,23.98
					l-41.53-23.98v-47.96l41.53-23.98l23.54,13.59l17.99,10.39V242.44z M292.67,181.23l-20.77-11.99v-47.96l41.53-23.98l23.64,13.65
					l17.89,10.33v47.96l-17.89,10.33l-23.64,13.65L292.67,181.23z M397.23,242.44l-41.53,23.98l-41.53-23.98v-47.96l10.42-6.01
					l31.11-17.96l28.79,16.62l12.74,7.36V242.44z"/>
				<path class="st69" d="M481.98,242.23l-41.53,23.98l-41.53-23.98v-47.96l17.99-10.39l23.54-13.59l41.53,23.98V242.23z
					 M377.42,181.01l-20.77-11.99v-47.96l20.77-11.99l20.77-11.99l41.53,23.98v47.96l-20.77,11.99L398.18,193L377.42,181.01z
					 M483.45,241.51v-48.09l-42.26-24.4v-48.8l-42.26-24.4v-48.8l-43-24.82l-43,24.82v48.8l-42.26,24.4v48.8l-42.26,24.4v48.3
					H-58.22v1.42h286.74l42.87,24.75l42.26-24.4l42.26,24.4l42.26-24.4l42.26,24.4l43-24.82v-0.14h62.87v-1.42H483.45z
					 M314.39,47.86l41.53-23.98l41.53,23.98v47.96l-12.74,7.36l-28.79,16.62l-31.11-17.96l-10.42-6.01V47.86z M312.92,242.23
					l-41.53,23.98l-41.53-23.98v-47.96l41.53-23.98l23.54,13.59l17.99,10.39V242.23z M292.89,181.01l-20.77-11.99v-47.96
					l41.53-23.98l23.64,13.65l17.89,10.33v47.96l-17.89,10.33L313.66,193L292.89,181.01z M397.45,242.23l-41.53,23.98l-41.53-23.98
					v-47.96l10.42-6.01l31.11-17.96l28.79,16.62l12.74,7.36V242.23z"/>
				<path class="st70" d="M482.2,242.01l-41.53,23.98l-41.53-23.98v-47.96l17.99-10.39l23.54-13.59l41.53,23.98V242.01z
					 M377.64,180.79l-20.77-11.99v-47.96l20.77-11.99l20.77-11.99l41.53,23.98v47.96l-20.77,11.99l-20.77,11.99L377.64,180.79z
					 M483.67,241.29V193.2l-42.26-24.4V120l-42.26-24.4V46.8l-43-24.82l-43,24.82v48.8L270.88,120v48.8l-42.26,24.4v48.3H-58v1.42
					h286.74l42.87,24.75l42.26-24.4l42.26,24.4l42.26-24.4l42.26,24.4l43-24.82v-0.14h62.87v-1.42H483.67z M314.61,47.64
					l41.53-23.98l41.53,23.98V95.6l-12.74,7.36l-28.79,16.62l-31.11-17.96l-10.42-6.01V47.64z M313.14,242.01l-41.53,23.98
					l-41.53-23.98v-47.96l41.53-23.98l23.54,13.59l17.99,10.39V242.01z M293.11,180.79l-20.77-11.99v-47.96l41.53-23.98l23.64,13.65
					l17.89,10.33v47.96l-17.89,10.33l-23.64,13.65L293.11,180.79z M397.67,242.01l-41.53,23.98l-41.53-23.98v-47.96l10.42-6.01
					l31.11-17.96l28.79,16.62l12.74,7.36V242.01z"/>
				<path class="st71" d="M482.42,241.79l-41.53,23.98l-41.53-23.98v-47.96l17.99-10.39l23.54-13.59l41.53,23.98V241.79z
					 M377.86,180.57l-20.77-11.99v-47.96l20.77-11.99l20.77-11.99l41.53,23.98v47.96l-20.77,11.99l-20.77,11.99L377.86,180.57z
					 M483.88,241.08v-48.09l-42.26-24.4v-48.8l-42.26-24.4v-48.8l-43-24.82l-43,24.82v48.8l-42.26,24.4v48.8l-42.26,24.4v48.3
					H-57.78v1.42h286.74l42.87,24.75l42.26-24.4l42.26,24.4l42.26-24.4l42.26,24.4l43-24.82v-0.14h62.87v-1.42H483.88z
					 M314.83,47.43l41.53-23.98l41.53,23.98v47.96l-12.74,7.36l-28.79,16.62l-31.11-17.96l-10.42-6.01V47.43z M313.36,241.79
					l-41.53,23.98l-41.53-23.98v-47.96l41.53-23.98l23.54,13.59l17.99,10.39V241.79z M293.33,180.57l-20.77-11.99v-47.96
					l41.53-23.98l23.64,13.65l17.89,10.33v47.96l-17.89,10.33l-23.64,13.65L293.33,180.57z M397.89,241.79l-41.53,23.98
					l-41.53-23.98v-47.96l10.42-6.01l31.11-17.96l28.79,16.62l12.74,7.36V241.79z"/>
				<path class="st72" d="M482.63,241.57l-41.53,23.98l-41.53-23.98v-47.96l17.99-10.39l23.54-13.59l41.53,23.98V241.57z
					 M378.07,180.36l-20.77-11.99v-47.96l20.77-11.99l20.77-11.99l41.53,23.98v47.96l-20.77,11.99l-20.77,11.99L378.07,180.36z
					 M484.1,240.86v-48.09l-42.26-24.4v-48.8l-42.26-24.4v-48.8l-43-24.82l-43,24.82v48.8l-42.26,24.4v48.8l-42.26,24.4v48.3H-57.57
					v1.42h286.74l42.87,24.75l42.26-24.4l42.26,24.4l42.26-24.4l42.26,24.4l43-24.82v-0.14h62.87v-1.42H484.1z M315.05,47.21
					l41.53-23.98l41.53,23.98v47.96l-12.74,7.36l-28.79,16.62l-31.11-17.96l-10.42-6.01V47.21z M313.58,241.57l-41.53,23.98
					l-41.53-23.98v-47.96l41.53-23.98l23.54,13.59l17.99,10.39V241.57z M293.55,180.36l-20.77-11.99v-47.96l41.53-23.98l23.64,13.65
					l17.89,10.33v47.96l-17.89,10.33l-23.64,13.65L293.55,180.36z M398.11,241.57l-41.53,23.98l-41.53-23.98v-47.96l10.42-6.01
					l31.11-17.96l28.79,16.62l12.74,7.36V241.57z"/>
				<path class="st73" d="M482.85,241.35l-41.53,23.98l-41.53-23.98V193.4l17.99-10.39l23.54-13.59l41.53,23.98V241.35z
					 M378.29,180.14l-20.77-11.99v-47.96l20.77-11.99l20.77-11.99l41.53,23.98v47.96l-20.77,11.99l-20.77,11.99L378.29,180.14z
					 M484.32,240.64v-48.09l-42.26-24.4v-48.8l-42.26-24.4v-48.8l-43-24.82l-43,24.82v48.8l-42.26,24.4v48.8l-42.26,24.4v48.3
					H-57.35v1.42h286.74l42.87,24.75l42.26-24.4l42.26,24.4l42.26-24.4l42.26,24.4l43-24.82v-0.14h62.87v-1.42H484.32z
					 M315.26,46.99l41.53-23.98l41.53,23.98v47.96l-12.74,7.36l-28.79,16.62l-31.11-17.96l-10.42-6.01V46.99z M313.8,241.35
					l-41.53,23.98l-41.53-23.98V193.4l41.53-23.98l23.54,13.59l17.99,10.39V241.35z M293.76,180.14L273,168.15v-47.96l41.53-23.98
					l23.64,13.65l17.89,10.33v47.96l-17.89,10.33l-23.64,13.65L293.76,180.14z M398.32,241.35l-41.53,23.98l-41.53-23.98V193.4
					l10.42-6.01l31.11-17.96l28.79,16.62l12.74,7.36V241.35z"/>
				<path class="st74" d="M483.07,241.13l-41.53,23.98l-41.53-23.98v-47.96L418,182.79l23.54-13.59l41.53,23.98V241.13z
					 M378.51,179.92l-20.77-11.99v-47.96l20.77-11.99L399.28,96l41.53,23.98v47.96l-20.77,11.99l-20.77,11.99L378.51,179.92z
					 M484.54,240.42v-48.09l-42.26-24.4v-48.8l-42.26-24.4v-48.8l-43-24.82l-43,24.82v48.8l-42.26,24.4v48.8l-42.26,24.4v48.3
					H-57.13v1.42h286.74l42.87,24.75l42.26-24.4l42.26,24.4l42.26-24.4l42.26,24.4l43-24.82v-0.14h62.87v-1.42H484.54z
					 M315.48,46.77l41.53-23.98l41.53,23.98v47.96l-12.74,7.36l-28.79,16.62l-31.11-17.96l-10.42-6.01V46.77z M314.01,241.13
					l-41.53,23.98l-41.53-23.98v-47.96l41.53-23.98l23.54,13.59l17.99,10.39V241.13z M293.98,179.92l-20.77-11.99v-47.96L314.75,96
					l23.64,13.65l17.89,10.33v47.96l-17.89,10.33l-23.64,13.65L293.98,179.92z M398.54,241.13l-41.53,23.98l-41.53-23.98v-47.96
					l10.42-6.01l31.11-17.96l28.79,16.62l12.74,7.36V241.13z"/>
				<path class="st75" d="M483.29,240.92l-41.53,23.98l-41.53-23.98v-47.96l17.99-10.39l23.54-13.59l41.53,23.98V240.92z
					 M378.73,179.7l-20.77-11.99v-47.96l20.77-11.99l20.77-11.99l41.53,23.98v47.96l-20.77,11.99l-20.77,11.99L378.73,179.7z
					 M484.76,240.2v-48.09l-42.26-24.4v-48.8l-42.26-24.4v-48.8l-43-24.82l-43,24.82v48.8l-42.26,24.4v48.8l-42.26,24.4v48.3H-56.91
					v1.42h286.74l42.87,24.75l42.26-24.4l42.26,24.4l42.26-24.4l42.26,24.4l43-24.82v-0.14h62.87v-1.42H484.76z M315.7,46.55
					l41.53-23.98l41.53,23.98v47.96l-12.74,7.36l-28.79,16.62l-31.11-17.96l-10.42-6.01V46.55z M314.23,240.92l-41.53,23.98
					l-41.53-23.98v-47.96l41.53-23.98l23.54,13.59l17.99,10.39V240.92z M294.2,179.7l-20.77-11.99v-47.96l41.53-23.98l23.64,13.65
					l17.89,10.33v47.96l-17.89,10.33l-23.64,13.65L294.2,179.7z M398.76,240.92l-41.53,23.98l-41.53-23.98v-47.96l10.42-6.01
					l31.11-17.96l28.79,16.62l12.74,7.36V240.92z"/>
				<path class="st76" d="M483.51,240.7l-41.53,23.98l-41.53-23.98v-47.96l17.99-10.39l23.54-13.59l41.53,23.98V240.7z
					 M378.95,179.48l-20.77-11.99v-47.96l20.77-11.99l20.77-11.99l41.53,23.98v47.96l-20.77,11.99l-20.77,11.99L378.95,179.48z
					 M484.98,239.98v-48.09l-42.26-24.4v-48.8l-42.26-24.4v-48.8l-43-24.82l-43,24.82v48.8l-42.26,24.4v48.8l-42.26,24.4v48.3
					H-56.69v1.42h286.74l42.87,24.75l42.26-24.4l42.26,24.4l42.26-24.4l42.26,24.4l43-24.82v-0.14h62.87v-1.42H484.98z
					 M315.92,46.33l41.53-23.98l41.53,23.98v47.96l-12.74,7.36l-28.79,16.62l-31.11-17.96l-10.42-6.01V46.33z M314.45,240.7
					l-41.53,23.98l-41.53-23.98v-47.96l41.53-23.98l23.54,13.59l17.99,10.39V240.7z M294.42,179.48l-20.77-11.99v-47.96l41.53-23.98
					l23.64,13.65l17.89,10.33v47.96l-17.89,10.33l-23.64,13.65L294.42,179.48z M398.98,240.7l-41.53,23.98l-41.53-23.98v-47.96
					l10.42-6.01l31.11-17.96l28.79,16.62l12.74,7.36V240.7z"/>
				<path class="st77" d="M483.73,240.48l-41.53,23.98l-41.53-23.98v-47.96l17.99-10.39l23.54-13.59l41.53,23.98V240.48z
					 M379.17,179.26l-20.77-11.99v-47.96l20.77-11.99l20.77-11.99l41.53,23.98v47.96l-20.77,11.99l-20.77,11.99L379.17,179.26z
					 M485.19,239.77v-48.09l-42.26-24.4v-48.8l-42.26-24.4v-48.8l-43-24.82l-43,24.82v48.8l-42.26,24.4v48.8l-42.26,24.4v48.3
					H-56.47v1.42h286.74l42.87,24.75l42.26-24.4l42.26,24.4l42.26-24.4l42.26,24.4l43-24.82v-0.14h62.87v-1.42H485.19z
					 M316.14,46.12l41.53-23.98l41.53,23.98v47.96l-12.74,7.36l-28.79,16.62l-31.11-17.96l-10.42-6.01V46.12z M314.67,240.48
					l-41.53,23.98l-41.53-23.98v-47.96l41.53-23.98l23.54,13.59l17.99,10.39V240.48z M294.64,179.26l-20.77-11.99v-47.96
					l41.53-23.98l23.64,13.65l17.89,10.33v47.96l-17.89,10.33l-23.64,13.65L294.64,179.26z M399.2,240.48l-41.53,23.98l-41.53-23.98
					v-47.96l10.42-6.01l31.11-17.96l28.79,16.62l12.74,7.36V240.48z"/>
				<path class="st78" d="M483.94,240.26l-41.53,23.98l-41.53-23.98V192.3l17.99-10.39l23.54-13.59l41.53,23.98V240.26z
					 M379.38,179.05l-20.77-11.99V119.1l20.77-11.99l20.77-11.99l41.53,23.98v47.96l-20.77,11.99l-20.77,11.99L379.38,179.05z
					 M485.41,239.55v-48.09l-42.26-24.4v-48.8l-42.26-24.4v-48.8l-43-24.82l-43,24.82v48.8l-42.26,24.4v48.8l-42.26,24.4v48.3
					H-56.26v1.42h286.74l42.87,24.75l42.26-24.4l42.26,24.4l42.26-24.4l42.26,24.4l43-24.82v-0.14h62.87v-1.42H485.41z M316.36,45.9
					l41.53-23.98l41.53,23.98v47.96l-12.74,7.36l-28.79,16.62l-31.11-17.96l-10.42-6.01V45.9z M314.89,240.26l-41.53,23.98
					l-41.53-23.98V192.3l41.53-23.98l23.54,13.59l17.99,10.39V240.26z M294.86,179.05l-20.77-11.99V119.1l41.53-23.98l23.64,13.65
					l17.89,10.33v47.96l-17.89,10.33l-23.64,13.65L294.86,179.05z M399.42,240.26l-41.53,23.98l-41.53-23.98V192.3l10.42-6.01
					l31.11-17.96l28.79,16.62l12.74,7.36V240.26z"/>
				<path class="st79" d="M484.16,240.04l-41.53,23.98l-41.53-23.98v-47.96l17.99-10.39l23.54-13.59l41.53,23.98V240.04z
					 M379.6,178.83l-20.77-11.99v-47.96l20.77-11.99l20.77-11.99l41.53,23.98v47.96l-20.77,11.99l-20.77,11.99L379.6,178.83z
					 M485.63,239.33v-48.09l-42.26-24.4v-48.8l-42.26-24.4v-48.8l-43-24.82l-43,24.82v48.8l-42.26,24.4v48.8l-42.26,24.4v48.3
					H-56.04v1.42H230.7l42.87,24.75l42.26-24.4l42.26,24.4l42.26-24.4l42.26,24.4l43-24.82v-0.14h62.87v-1.42H485.63z M316.57,45.68
					L358.1,21.7l41.53,23.98v47.96l-12.74,7.36l-28.79,16.62l-31.11-17.96l-10.42-6.01V45.68z M315.11,240.04l-41.53,23.98
					l-41.53-23.98v-47.96l41.53-23.98l23.54,13.59l17.99,10.39V240.04z M295.07,178.83l-20.77-11.99v-47.96l41.53-23.98l23.64,13.65
					l17.89,10.33v47.96l-17.89,10.33l-23.64,13.65L295.07,178.83z M399.63,240.04l-41.53,23.98l-41.53-23.98v-47.96l10.42-6.01
					l31.11-17.96l28.79,16.62l12.74,7.36V240.04z"/>
			</g>
			<path class="st3" d="M485.63,239.33v-48.09l-42.26-24.4v-48.8l-42.26-24.4v-48.8l-43-24.82l-43,24.82v48.8l-42.26,24.4v48.8
				l-42.26,24.4v48.3H-56.04v1.42H230.7l42.87,24.75l42.26-24.4l42.26,24.4l42.26-24.4l42.26,24.4l43-24.82v-0.14h62.87v-1.42
				H485.63z M316.57,45.68L358.1,21.7l41.53,23.98v47.96l-12.74,7.36l-28.79,16.62l-31.11-17.96l-10.42-6.01V45.68z M315.11,240.04
				l-41.53,23.98l-41.53-23.98v-47.96l41.53-23.98l23.54,13.59l17.99,10.39V240.04z M295.07,178.83l-20.77-11.99v-47.96l41.53-23.98
				l23.64,13.65l17.89,10.33v47.96l-17.89,10.33l-23.64,13.65L295.07,178.83z M399.63,240.04l-41.53,23.98l-41.53-23.98v-47.96
				l10.42-6.01l31.11-17.96l28.79,16.62l12.74,7.36V240.04z M379.6,178.83l-20.77-11.99v-47.96l20.77-11.99l20.77-11.99l41.53,23.98
				v47.96l-20.77,11.99l-20.77,11.99L379.6,178.83z M484.16,240.04l-41.53,23.98l-41.53-23.98v-47.96l17.99-10.39l23.54-13.59
				l41.53,23.98V240.04z"/>
		</g>
	</g>
	<g>
		<path class="st3" d="M341.57,79.7c-0.26,0.96-0.5,1.93-0.72,2.92c0.96-0.27,1.94-0.5,2.92-0.71c0.26-0.95,0.53-1.89,0.84-2.8
			C343.59,79.29,342.57,79.48,341.57,79.7z M366.37,67.81l-2.49-2.49c-0.88,0.16-1.75,0.33-2.6,0.52l3.96,3.96
			c-0.63,0.98-1.33,1.86-2.11,2.66l-5.62-5.62c-0.78,0.25-1.53,0.53-2.27,0.85l6.24,6.24c-0.46,0.34-0.93,0.66-1.44,0.95
			c-0.52,0.29-1.05,0.55-1.59,0.79l-6.3-6.3c-0.53,0.39-1.05,0.82-1.52,1.29c-0.05,0.05-0.1,0.11-0.14,0.16l5.72,5.72
			c-1.2,0.41-2.44,0.76-3.71,1.06l-4.09-4.09c-0.4,0.64-0.77,1.31-1.11,2.01l2.62,2.62c-1.32,0.26-2.66,0.49-3.99,0.72
			c-0.31,0.89-0.6,1.82-0.87,2.77c5.96-1.17,12.18-1.78,17.19-4.56c4.48-2.5,6.96-7.37,8.63-13.05c-1.05,0.21-2.09,0.41-3.14,0.6
			C367.32,65.74,366.88,66.8,366.37,67.81z M333.78,82.2l2.2,2.2c0.32-0.16,0.66-0.29,0.99-0.43l1.99,1.99
			c0.17-0.87,0.35-1.73,0.53-2.59l-0.26-0.26c0.11-0.04,0.23-0.07,0.34-0.1c0.22-1.02,0.46-2.02,0.72-3
			C338.02,80.54,335.82,81.21,333.78,82.2z M368.18,63.36c1.02-0.19,2.05-0.38,3.06-0.6c0.26-0.95,0.49-1.93,0.72-2.91
			c-0.96,0.27-1.94,0.5-2.93,0.71C368.76,61.52,368.48,62.45,368.18,63.36z M369.35,59.3c0.98-0.22,1.94-0.46,2.89-0.74
			c0.02-0.08,0.04-0.16,0.05-0.24l0.17,0.17c0.79-0.24,1.57-0.5,2.32-0.8l-1.97-1.97c0.09-0.46,0.18-0.92,0.27-1.39l-2.2-2.2
			C370.42,54.54,369.93,56.96,369.35,59.3z"/>
		<path class="st3" d="M347.6,67.64c-4.63,4.63-6.39,12.62-7.88,20.5c0.73,0.73,1.47,1.47,2.2,2.2c1.49-7.88,3.24-15.87,7.88-20.5
			c0.88-0.88,1.86-1.63,2.96-2.25c7.68-4.27,18.2-3.42,26.26-7.32c-0.73-0.73-1.47-1.47-2.2-2.2c-8.06,3.9-18.58,3.05-26.26,7.32
			C349.46,66.01,348.48,66.76,347.6,67.64z"/>
	</g>
	<g>
		<path class="st80" d="M410.22,134.12c-6.08,0-11.04,4.75-11.4,10.75h22.81C421.27,138.87,416.3,134.12,410.22,134.12z"/>
		<path class="st80" d="M398.81,146.15c0.31,6.04,5.29,10.85,11.41,10.85s11.1-4.81,11.41-10.85H398.81z"/>
		<path class="st80" d="M389.16,125.81c-4.04,0-7.34,3.3-7.34,7.33l0.01,22.18c0,2.02,0.83,3.85,2.16,5.18
			c1.33,1.33,3.16,2.16,5.18,2.16c4.03,0,7.33-3.3,7.33-7.33v-22.18C396.5,129.11,393.19,125.81,389.16,125.81z M394.92,144.63
			h-11.53v-11.25c0-3.17,2.59-5.76,5.77-5.76c3.17,0,5.76,2.59,5.76,5.76V144.63z"/>
	</g>
	<g>
		<path class="st80" d="M273.38,195.07c0,0-12.55,21.02-12.55,27.95c0,6.93,5.62,12.55,12.55,12.55c6.94,0,12.55-5.63,12.55-12.55
			C285.94,216.09,273.38,195.07,273.38,195.07z M273.38,232.94c-5.47,0-9.92-4.45-9.92-9.92c0-3.84,5.4-14.69,9.92-22.69
			c4.51,8.01,9.92,18.85,9.92,22.69C283.3,228.49,278.85,232.94,273.38,232.94z"/>
		<path class="st80" d="M272.08,229.01c-2.47-1.34-4.01-3.93-4.01-6.74c0-0.53-0.43-0.96-0.96-0.96c-0.53,0-0.96,0.43-0.96,0.96
			c0,3.51,1.92,6.75,5.02,8.43c0.15,0.08,0.3,0.12,0.46,0.12c0.34,0,0.66-0.19,0.84-0.5C272.71,229.84,272.54,229.26,272.08,229.01z
			"/>
	</g>
	<g>
		<path class="st80" d="M334.82,128.62c0,0-1.41,1.36-5.76,1.36c-0.96,0-2.07-0.07-3.34-0.23c-7.3-0.94-10.42-4.17-10.42-4.17
			s-3.12,3.23-10.42,4.17c-1.27,0.16-2.38,0.23-3.34,0.23c-4.34,0-5.76-1.36-5.76-1.36s-4.22,25.05,19.52,38.81
			C339.04,153.67,334.82,128.62,334.82,128.62z M315.31,164.78c-8.57-5.32-14.09-12.8-16.4-22.27c-1.06-4.32-1.18-8.15-1.1-10.62
			c1,0.22,2.23,0.36,3.74,0.36c1.13,0,2.35-0.08,3.63-0.25c5.04-0.65,8.34-2.34,10.13-3.55c1.79,1.2,5.09,2.9,10.12,3.55
			c1.28,0.17,2.51,0.25,3.64,0.25c1.51,0,2.75-0.15,3.74-0.36C333.02,138.44,331.7,154.59,315.31,164.78z"/>
		<polygon class="st80" points="318.06,137.28 312.64,137.28 312.64,142.73 307.2,142.73 307.2,148.14 312.64,148.14 312.64,153.58 
			318.06,153.58 318.06,148.14 323.5,148.14 323.5,142.73 318.06,142.73 		"/>
	</g>
	<path class="st80" d="M380.05,213.8L380.05,213.8c-0.34-6.48-5.69-11.37-12.44-11.37c-0.2,0-0.4,0-0.61,0.01
		c-4.21,0.17-7.38,2.91-8.97,4.63c-1.56-1.74-4.7-4.53-8.9-4.76c-0.28-0.02-0.55-0.02-0.82-0.02c-6.63,0-11.95,4.81-12.39,11.18
		c-0.41,6.01,3.69,11.23,6.8,14.64c4.03,4.41,10.29,9.16,14.39,11.57l0.67,0.4l0.68-0.39c4.14-2.35,10.46-7.01,14.56-11.36
		C376.2,224.98,380.37,219.81,380.05,213.8z M371.06,226.48c-4.08,4.34-9.89,8.46-13.25,10.46c-3.33-2.06-9.07-6.26-13.09-10.66
		c-0.78-0.85-1.62-1.83-2.43-2.9h8.53c0.14,0,0.27-0.06,0.35-0.17l0.47-0.62l0.59,2.67c0.04,0.18,0.21,0.3,0.42,0.31
		c0.21,0,0.38-0.13,0.42-0.31l0.56-2.47l0.69,3.65c0.03,0.18,0.21,0.32,0.42,0.32c0.2,0,0.38-0.13,0.42-0.31l2.11-10.22l1.75,15.13
		c0.02,0.19,0.2,0.34,0.42,0.34c0.21,0,0.39-0.14,0.42-0.32l1.51-9.01l0.61,3.85c0.03,0.18,0.19,0.32,0.4,0.33
		c0.2,0.01,0.38-0.1,0.43-0.27l1.05-3.32l0.41,1.88c0.04,0.17,0.2,0.3,0.39,0.31c0.19,0,0.36-0.09,0.43-0.25l0.55-1.38l0.48,0.68
		c0.07,0.1,0.2,0.17,0.35,0.17c0.15,0,0.26-0.05,0.35-0.14l0.73-0.83h6.17C372.84,224.54,371.91,225.58,371.06,226.48z
		 M374.27,222.63h-6.94c-0.13,0-0.25,0.05-0.33,0.14l-0.49,0.55l-0.63-0.88c-0.09-0.12-0.25-0.19-0.4-0.17
		c-0.17,0.01-0.31,0.11-0.36,0.25l-0.32,0.81l-0.46-2.08c-0.04-0.17-0.21-0.3-0.4-0.31c0,0-0.01,0-0.01,0
		c-0.19,0-0.36,0.11-0.41,0.28l-0.99,3.12l-0.74-4.66c-0.03-0.19-0.21-0.33-0.42-0.33c-0.21,0-0.39,0.14-0.42,0.32l-1.44,8.61
		l-1.7-14.77c-0.02-0.19-0.2-0.33-0.41-0.34c-0.22,0-0.39,0.13-0.43,0.31l-2.21,10.71l-0.67-3.55c-0.03-0.18-0.21-0.32-0.42-0.32
		c-0.21,0-0.38,0.13-0.42,0.31l-0.59,2.61l-0.37-1.69c-0.03-0.16-0.18-0.28-0.35-0.3c-0.16-0.02-0.33,0.04-0.42,0.16l-0.92,1.21
		h-8.85c-1.84-2.61-3.34-5.71-3.11-8.97c0.29-4.3,3.71-8.66,9.69-8.66c0.22,0,0.44,0.01,0.67,0.02c4.67,0.26,7.89,4.91,7.92,4.96
		l1.1,1.64l1.13-1.62c0.03-0.05,3.29-4.65,7.99-4.84c6.29-0.25,9.99,4.41,10.23,8.79v0C377.51,217.1,376.07,220.1,374.27,222.63z"/>
	<path class="st80" d="M464.52,220.71c0-2.68-2.17-4.85-4.85-4.85c-2.68,0-4.85,2.17-4.85,4.85c0,2.31,1.62,4.24,3.78,4.72v8.15
		c0,5.9-4.8,10.69-10.69,10.69c-5.9,0-10.69-4.8-10.69-10.69v-3.32h4.71c2.61,0,4.82-1.95,5.14-4.55l2.7-21.76
		c0.18-1.47-0.28-2.96-1.26-4.07c-0.98-1.11-2.4-1.75-3.88-1.75h-1.95c-0.59,0-1.07,0.48-1.07,1.07c0,0.59,0.48,1.07,1.07,1.07h1.95
		c0.87,0,1.7,0.38,2.28,1.03c0.58,0.65,0.85,1.53,0.74,2.39l-2.7,21.76c-0.19,1.52-1.49,2.67-3.02,2.67h-11.57
		c-1.53,0-2.83-1.15-3.02-2.67l-2.7-21.76c-0.11-0.87,0.16-1.74,0.74-2.39c0.58-0.65,1.41-1.03,2.28-1.03h2.76
		c0.59,0,1.07-0.48,1.07-1.07c0-0.59-0.48-1.07-1.07-1.07h-2.76c-1.49,0-2.9,0.64-3.88,1.75c-0.98,1.11-1.44,2.6-1.26,4.07
		l2.7,21.76c0.32,2.59,2.53,4.55,5.14,4.55h4.71v3.32c0,7.07,5.76,12.83,12.83,12.83c7.07,0,12.83-5.76,12.83-12.83v-8.15
		C462.91,224.95,464.52,223.02,464.52,220.71z"/>
</g>
<rect x="35.46" y="179.98" class="st81" width="119.57" height="10.24"/>
<text transform="matrix(1 0 0 1 35.4566 188.5015)" class="st82 st83 st84">Holistic Invetion and</text>
<rect x="37.59" y="193.11" class="st81" width="119.57" height="11.1"/>
<text transform="matrix(1 0 0 1 37.5918 201.6328)" class="st85 st83 st84">Recovery LLC</text>
</svg>
